<svg xmlns="http://www.w3.org/2000/svg" data-name="Layer 1" width="88" height="88"><path d="M510 0H9a9.014 9.014 0 0 0-9 9v296a9.014 9.014 0 0 0 9 9h501a9.014 9.014 0 0 0 9-9V9a9.014 9.014 0 0 0-9-9Zm7 305a7.008 7.008 0 0 1-7 7H9a7.008 7.008 0 0 1-7-7V9a7.008 7.008 0 0 1 7-7h501a7.008 7.008 0 0 1 7 7Z" fill="#3f3d56"/><path fill="#3f3d56" d="M1 34h517v2H1z"/><circle cx="18" cy="17.5" r="5" fill="#ccc"/><circle cx="33" cy="17.5" r="5" fill="#ccc"/><circle cx="48" cy="17.5" r="5" fill="#ccc"/><path d="M380.5 433.5h-242a8.51 8.51 0 0 1-8.5-8.5V154a8.51 8.51 0 0 1 8.5-8.5h242a8.51 8.51 0 0 1 8.5 8.5v271a8.51 8.51 0 0 1-8.5 8.5Z" fill="#6c63ff"/><path d="M330.5 284.5h-142a12.5 12.5 0 0 1 0-25h142a12.5 12.5 0 0 1 0 25Zm0 46.5h-142a12.5 12.5 0 0 1 0-25h142a12.5 12.5 0 0 1 0 25Zm0 47h-142a12.5 12.5 0 1 1 0-25h142a12.5 12.5 0 0 1 0 25ZM287 223h-55a12.5 12.5 0 0 1 0-25h55a12.5 12.5 0 0 1 0 25Z" fill="#fff"/><rect x="43" y="71" width="433" height="21" rx="10.5" fill="#ccc"/><path d="M739.617 476.023a9.69 9.69 0 0 0 3.466-14.45l22.582-124.975-21.073-.278-15.682 123.584a9.743 9.743 0 0 0 10.707 16.119Zm-65.402-5.926-8 38 1 85h15l7-83 11-35-26-5z" fill="#a0616a"/><path fill="#a0616a" d="m724.215 470.097-8 38 1 85h15l7-83 11-35-26-5z"/><path d="m662.308 590.733 23.62 1.072-.675 14.872-38.491-1.747a14.887 14.887 0 0 1 15.546-14.197Zm50 0 23.62 1.072-.675 14.872-38.491-1.747a14.887 14.887 0 0 1 15.546-14.197Z" fill="#2f2e41"/><circle cx="710.715" cy="259.18" r="24.561" fill="#a0616a"/><path d="M764.993 319.93c-8.127-12.753-35.166-44.528-75.278-18.333 0 0 9.5 79.5-13.5 122.5 0 0 53 16 82 1 0 0-10-67 0-80a53.904 53.904 0 0 0 8.013-13.726 12.891 12.891 0 0 0-1.235-11.442Z" fill="#ccc"/><path d="m755.215 319.097 9.813 4.09a3.718 3.718 0 0 1 2.285 3.277l.902 21.633-22-2Z" fill="#ccc"/><path d="M680.215 422.097s-22 41-18 79l31 5 22-53-5 54 32 1s21-78 14-85Z" fill="#2f2e41"/><path d="M674.617 466.023a9.69 9.69 0 0 0 3.466-14.45l22.582-124.975-21.073-.278-15.682 123.584a9.743 9.743 0 0 0 10.707 16.119Z" fill="#a0616a"/><path d="m699.215 302.097-9-1s-8-2-11 9-3 33-3 33l28-1Z" fill="#ccc"/><path d="M714.65 271.005c.881-3.062.626-7.205-2.342-8.363-1.547-.604-3.272-.128-4.924.041a13.141 13.141 0 0 1-9.08-2.5c-3.071-2.282-4.968-5.77-6.769-9.147l-2.724-5.105a22.18 22.18 0 0 1-1.545-3.327c-1.516-4.507.13-9.726 3.499-13.082a18.976 18.976 0 0 1 12.963-5.082 34.984 34.984 0 0 1 13.851 2.967 61.26 61.26 0 0 1 20.653 13.875c3.832 3.92 7.32 9.027 6.52 14.45-.623 4.222-3.7 7.602-6.635 10.7l-10.645 11.237c-1.885 1.99-3.9 4.061-6.531 4.826s-6.024-.359-6.741-3.004c0 0-.433-5.425.45-8.486Z" fill="#2f2e41"/><path d="M837.5 606a1.003 1.003 0 0 1-1 1h-288a1 1 0 0 1 0-2h288a1.003 1.003 0 0 1 1 1Z" fill="#3f3d56"/></svg>
