<svg width="42px" height="42px" viewBox="0 0 31.996 32.006" xmlns="http://www.w3.org/2000/svg"><path style="fill:#000;stroke:none;stroke-width:1px;stroke-linecap:butt;stroke-linejoin:miter;stroke-opacity:1" d="m195.604 71.132 152.632 450.485M447.52 100.77 324.526 432.706"/><path d="M10.351.483c.19 3.818 0 9.366-1.869 15.534-1.15 3.914-2.6 7.254-4.577 11.988-.22.54-.4 1.108-.626 1.644a5.782 5.782 0 0 1-.36.727c-.132.22-.283.427-.464.614a.41.41 0 0 1-.108.08.157.157 0 0 1-.06.015.16.16 0 0 1-.06-.01.361.361 0 0 1-.094-.05.967.967 0 0 1-.335-.585.46.46 0 0 0-.014-.066c-.345-1.164-.556-2.388-.702-3.7a49.83 49.83 0 0 1-.156-1.687c-.022-.774.05-1.658.008-2.664l-.043.213a.135.135 0 0 1-.028.042.379.379 0 0 1-.26.128.395.395 0 0 1-.12-.009.357.357 0 0 1-.137-.064.219.219 0 0 1-.036-.034l.005.008a.834.834 0 0 1 .048.098 3.014 3.014 0 0 1 .153.47 2.742 2.742 0 0 1 .018.076c.027.248.092.48.186.7.095.22.22.42.362.605.272.355.613.652.95.91 1.554 1.251 3.326 2.582 5.32 3.53.155.087.337.166.53.223a2 2 0 0 0 .637.09c.112-.004.23-.02.345-.056a1.044 1.044 0 0 0 .608-.477c.066-.113.112-.238.141-.372a4.08 4.08 0 0 0 .152-.745c.028-.244.043-.492.06-.717.018-.227.04-.439.077-.64a2.194 2.194 0 0 1 .194-.594c.198-.538.467-1.09.716-1.68.242-.574.47-1.201.555-1.883a.472.472 0 0 0 .003-.064 51.834 51.834 0 0 1-.004-.557v-.039l.001-.007-.004.03a.43.43 0 0 1-.07.17.459.459 0 0 1-.827-.147l-.004-.022v.003l.005.044.015.2c.044.768-.013 1.525-.04 2.366-.027.805-.024 1.659.165 2.513a.458.458 0 0 0 .024.076c.063.152.127.327.19.478.072.176.162.373.28.555.06.091.128.182.21.267.08.085.173.165.281.231.11.067.231.12.365.15.13.03.263.04.402.03.1-.002.22.01.373.027.147.017.33.04.51.047.18.008.385 0 .59-.056a1.173 1.173 0 0 0 .636-.426.462.462 0 0 0 .034-.07c.125-.315.195-.65.26-.917.034-.14.068-.267.11-.387.04-.118.088-.226.145-.324a.457.457 0 0 0 .025-.048c.135-.309.334-.705.465-1.089.068-.2.125-.413.155-.639a2.401 2.401 0 0 0-.005-.68c-.024-.474-.09-.946-.145-1.387-.055-.455-.098-.885-.085-1.31l-.919.023c.033.397.07.77.081 1.143.01.37-.008.718-.082 1.051a.46.46 0 0 0-.009.138c.027.32.105.62.217.903.112.28.258.543.422.787.325.482.732.905 1.114 1.27.155.158.34.302.541.419.204.118.433.213.672.264.241.052.5.062.757.001a1.45 1.45 0 0 0 .738-.434c.216-.257.374-.537.491-.827a4.37 4.37 0 0 0 .246-.881c.102-.578.118-1.189.15-1.698v-.014c.034-1.18-.063-2.33-.087-3.453a1.754 1.754 0 0 0-.016-.232.662.662 0 0 0-.07-.22.47.47 0 0 0-.158-.169.41.41 0 0 0-.22-.064.41.41 0 0 0-.22.067.47.47 0 0 0-.155.17.662.662 0 0 0-.07.221 1.742 1.742 0 0 0-.012.232c-.003.301-.034.637-.026.998.004.18.02.37.056.56.035.185.091.372.177.558.158.45.368.865.615 1.25.251.393.54.755.852 1.092.622.672 1.342 1.252 2.036 1.776a.46.46 0 0 0 .122.066c.06.02.147.043.25.034a.525.525 0 0 0 .46-.379.708.708 0 0 0 .03-.169c.002-.046 0-.09-.002-.13a2.078 2.078 0 0 0-.01-.116 6.965 6.965 0 0 0-.033-.222 2.186 2.186 0 0 1-.034-.374.348.348 0 0 1 .01-.075l-.006.011a.154.154 0 0 1-.028.034l.138-.23c.171-.692.46-1.343.828-1.956a11.054 11.054 0 0 1 1.325-1.747c.931-1.1 1.845-2.275 2.484-3.613a.455.455 0 0 0 .02-.052c.177-.526.274-1.069.367-1.563.097-.511.19-.978.356-1.42a.482.482 0 0 0 .012-.034c1.03-3.547 2.174-6.97 2.981-10.554a2.273 2.273 0 0 1 .112-.398l-.006.012a.377.377 0 0 1-.05.072.447.447 0 0 1-.236.14.458.458 0 0 1-.562-.466v.004l-.01.047a5.228 5.228 0 0 1-.048.199c-.37 1.66-1.029 3.252-1.634 4.894a28.396 28.396 0 0 0-.822 2.518c-.23.862-.396 1.746-.452 2.661a24.96 24.96 0 0 0 .97 9.002c.146.393.347.757.522 1.079.182.336.34.632.454.946a1.5 1.5 0 0 0 .087.218c.034.073.073.146.112.215.08.141.16.279.224.397.032.06.057.113.076.158.02.046.028.075.03.089.002.006.001.004 0-.004a.2.2 0 0 1 .007-.051.28.28 0 0 1 .11-.162.758.758 0 0 1 .118-.072.345.345 0 0 1 .133-.033.344.344 0 0 1 .134.023c.043.017.083.04.122.064a4.332 4.332 0 0 1-.898-.74 7.53 7.53 0 0 1-.746-.95c-.47-.694-.883-1.465-1.37-2.18-.596-.984-1.402-1.747-2.264-2.37-.888-.64-1.869-1.155-2.778-1.602-.872-.434-1.74-.83-2.546-1.266-.844-.455-1.604-.943-2.266-1.541a.413.413 0 0 1-.102-.11.198.198 0 0 1-.027-.068.271.271 0 0 1 0-.086.6.6 0 0 1 .035-.132c.04-.106.11-.225.198-.35a5.16 5.16 0 0 1 .285-.359c.806-.877 1.668-1.654 2.4-2.47 1.467-1.531 2.823-2.886 3.997-4.095a.46.46 0 0 0-.66-.642c-1.17 1.205-2.529 2.561-4.009 4.106l-.01.011c-.69.772-1.546 1.541-2.403 2.473a2.54 2.54 0 0 0-.66 1c-.039.103-.07.216-.086.336a1.12 1.12 0 0 0 .155.757c.07.117.164.222.275.317.735.664 1.563 1.19 2.44 1.664.842.454 1.721.855 2.576 1.28.901.444 1.824.93 2.647 1.525.798.575 1.507 1.256 2.02 2.109l.014.022c.453.662.867 1.436 1.376 2.187.248.367.522.731.838 1.067.314.332.67.639 1.09.894a.777.777 0 0 0 .121.064.345.345 0 0 0 .135.024.345.345 0 0 0 .132-.033.758.758 0 0 0 .28-.24.642.642 0 0 0 .09-.203.724.724 0 0 0 .02-.188.899.899 0 0 0-.019-.158 1.406 1.406 0 0 0-.084-.264 2.893 2.893 0 0 0-.112-.233c-.08-.149-.165-.291-.234-.414a2.86 2.86 0 0 1-.084-.161.625.625 0 0 1-.047-.12c-.14-.396-.336-.756-.517-1.09-.18-.33-.343-.63-.462-.945a24.05 24.05 0 0 1-.92-8.632c.052-.847.205-1.669.423-2.488a27.5 27.5 0 0 1 .796-2.436c.587-1.59 1.28-3.268 1.667-5.005a6.025 6.025 0 0 0 .067-.293.987.987 0 0 0 .014-.133.527.527 0 0 0-.012-.112.468.468 0 0 0-.403-.359.463.463 0 0 0-.432.198.55.55 0 0 0-.065.12 3.388 3.388 0 0 0-.167.568c-.795 3.533-1.919 6.887-2.96 10.475-.194.52-.299 1.055-.393 1.556-.095.503-.18.97-.326 1.415-.572 1.199-1.42 2.297-2.338 3.382a11.96 11.96 0 0 0-1.416 1.874 8.11 8.11 0 0 0-.907 2.103.794.794 0 0 0-.11.224 1.16 1.16 0 0 0-.056.329c-.008.194.021.398.043.544l.028.198.006.063.001.022c0-.002 0-.016.01-.05a.39.39 0 0 1 .216-.236.396.396 0 0 1 .127-.034.333.333 0 0 1 .14.016.46.46 0 0 1 .121.066c-.682-.514-1.35-1.055-1.915-1.666a6.887 6.887 0 0 1-.752-.962 5.08 5.08 0 0 1-.528-1.08.464.464 0 0 0-.02-.048 1.444 1.444 0 0 1-.116-.357 2.453 2.453 0 0 1-.04-.408c-.006-.29.023-.616.027-.967l-.92.005c.024 1.16.118 2.291.085 3.398-.033.554-.046 1.079-.136 1.586-.044.25-.105.482-.19.696a2.152 2.152 0 0 1-.333.567.562.562 0 0 1-.257.144.793.793 0 0 1-.35-.005 1.417 1.417 0 0 1-.404-.162 1.62 1.62 0 0 1-.36-.282c-.369-.35-.72-.722-.993-1.124a3.241 3.241 0 0 1-.33-.613 2.259 2.259 0 0 1-.148-.575c.082-.408.098-.814.087-1.201-.01-.407-.053-.821-.084-1.194-.012-.147-.03-.3-.108-.426a.46.46 0 0 0-.156-.155.402.402 0 0 0-.42.01.46.46 0 0 0-.149.163c-.072.13-.082.283-.086.431-.016.501.035.991.09 1.452.06.474.12.906.14 1.345l.007.053c.024.146.024.29.004.438a2.37 2.37 0 0 1-.113.46c-.112.33-.266.63-.427.993a2.745 2.745 0 0 0-.207.465c-.055.16-.098.32-.134.468-.067.274-.113.495-.186.703a.34.34 0 0 1-.096.042.983.983 0 0 1-.306.024c-.136-.006-.276-.023-.44-.042a3.783 3.783 0 0 0-.545-.032.405.405 0 0 1-.129-.007.302.302 0 0 1-.09-.038.476.476 0 0 1-.097-.08.938.938 0 0 1-.104-.135 2.535 2.535 0 0 1-.202-.405c-.06-.147-.114-.293-.174-.44-.155-.723-.162-1.469-.136-2.245.026-.792.086-1.626.04-2.454a10.15 10.15 0 0 0-.03-.33.617.617 0 0 0-.034-.124.472.472 0 0 0-.194-.223.462.462 0 0 0-.694.37 1.162 1.162 0 0 0-.005.118 7.87 7.87 0 0 0 0 .297l.004.256c-.072.544-.258 1.069-.486 1.608-.232.55-.505 1.109-.724 1.699-.12.255-.194.511-.24.76a6.63 6.63 0 0 0-.09.743c-.02.246-.033.46-.059.678a3.127 3.127 0 0 1-.12.596.46.46 0 0 0-.015.052.353.353 0 0 1-.038.111.124.124 0 0 1-.032.038.164.164 0 0 1-.052.025.42.42 0 0 1-.107.016 1.096 1.096 0 0 1-.342-.052 1.77 1.77 0 0 1-.383-.165c-1.897-.9-3.604-2.177-5.155-3.425a.348.348 0 0 0-.008-.007c-.313-.24-.583-.48-.786-.744a1.94 1.94 0 0 1-.246-.41 1.485 1.485 0 0 1-.117-.45 2.175 2.175 0 0 0-.04-.186 3.914 3.914 0 0 0-.2-.608 1.729 1.729 0 0 0-.107-.212.998.998 0 0 0-.075-.108.709.709 0 0 0-.116-.116.565.565 0 0 0-.378-.118.525.525 0 0 0-.288.113.588.588 0 0 0-.087.085.73.73 0 0 0-.14.266.463.463 0 0 0-.004.11c.038.93-.033 1.827-.009 2.664l.002.022c.046.601.097 1.17.16 1.73.148 1.333.365 2.605.725 3.83.037.221.12.437.228.626.118.204.276.394.47.536.1.072.21.134.333.177a1.08 1.08 0 0 0 .82-.045c.134-.064.257-.154.367-.264a4.26 4.26 0 0 0 .6-.789c.166-.278.302-.564.418-.842.25-.592.428-1.16.628-1.65 1.97-4.714 3.441-8.106 4.61-12.076C11.27 9.987 11.462 4.328 11.27.438a.46.46 0 0 0-.92.045z" style="fill:#fff;fill-rule:nonzero;stroke:none;stroke-width:.278476px;stroke-linecap:butt;stroke-linejoin:miter;stroke-opacity:1"/></svg>
