<svg xmlns="http://www.w3.org/2000/svg" data-name="Layer 1" viewBox="0 0 517 516"><g data-name="leader or founder"><path d="M507.84 358.45a11.82 11.82 0 0 0-1.35-.91 28.45 28.45 0 0 1-11.85-13.92c-.29-.69-.57-1.38-.85-2.08a64.71 64.71 0 0 1-4.05-19.73c-.32-4.77-.56-9.53-.92-14.29-.2-2.58-.45-5.17-.9-7.72a52.81 52.81 0 0 0-6.25-16.8 35.43 35.43 0 0 0-9.82-11.1 48.27 48.27 0 0 0-7.58-4.43 16.61 16.61 0 0 0-6.43-1.85 2.6 2.6 0 0 1-1.66-.63 5.23 5.23 0 0 0-3-1.15 1.27 1.27 0 0 1-1.24-1.09c-.27-.92-.67-1.79-1-2.69a32.29 32.29 0 0 0-8.31-13 24.81 24.81 0 0 0-17.39-7.45 43.12 43.12 0 0 0-8.33.85 19 19 0 0 0-9.22 4.07c-.73.61-1.48 1.19-2.23 1.78-.59.74-1.15 1.51-1.77 2.22a13.76 13.76 0 0 0-2.3 3.84 57.09 57.09 0 0 0-3.54 12.63c-.27 1.68-.4 3.38-.55 5.08-.1 1.08-.11 2.17-.19 3.26a69.5 69.5 0 0 0 1.55 18.48 6.47 6.47 0 0 0 .31 1.4c.44 1-.1 1.51-.82 2a28.69 28.69 0 0 1-6.22 3 143.76 143.76 0 0 1-14.53 4.1c-3.32.81-6.67 1.4-10 1.95q-5.85 1-11.7 1.87c-.74.11-1.49.15-2.24.22-.4 0-.82 0-1.22.12a.83.83 0 0 0-.76.82.73.73 0 0 0 .84.68c1.43-.07 2.85-.18 4.4-.28-.5.83-.13 1.47.24 2.15l8.27 15c.32.59.62 1.2.91 1.75a.73.73 0 0 1-.69.46l-10.18.91a7.48 7.48 0 0 1-.82 0c-.86 0-1-.14-1.22-1-.35-1.73-.66-3.48-1-5.22a83.41 83.41 0 0 0-2.05-9.79 22.49 22.49 0 0 0-3.43-7.15 4 4 0 0 0-.68-.75.59.59 0 0 0-.76 0c-.2.16-.41.39-.29.69a3.13 3.13 0 0 0 .37.73c2.24 3.12 3.26 6.72 4 10.4s1.3 7.1 2 10.65a70.71 70.71 0 0 1 1.3 12q.09 3.88.2 7.77a6.24 6.24 0 0 0 .13 1.22.68.68 0 0 0 .73.57.74.74 0 0 0 .73-.61 6.74 6.74 0 0 0 .09-1.42c0-2.52-.16-5-.19-7.56s-.29-5-.55-7.55c0-.33 0-.67-.05-1 .37-.4.8-.25 1.2-.29 3.66-.31 7.33-.62 11-1 1.69-.16 3.38-.39 5.08-.55a119.7 119.7 0 0 0 13.7-2.28 77.27 77.27 0 0 1 11.34-1.43 24.14 24.14 0 0 1 5.3.39 5.52 5.52 0 0 1 3.94 2.65c1.55 2.41 3.11 4.8 4.68 7.19a9.22 9.22 0 0 0 1.61 2.11.59.59 0 0 0 .74.12.69.69 0 0 0 .37-.86 5.56 5.56 0 0 0-.52-.87c-1.82-2.88-3.5-5.85-5.48-8.62a2.2 2.2 0 0 1-.2-.54c.16-.47.56-.34.86-.38.48-.06 1-.07 1.43-.12 7.63-.85 14.58 1.18 21 5.09a24.56 24.56 0 0 1 8.28 8.9 30.91 30.91 0 0 1 4.34 15c.14 4.52-1.75 8.06-6 10a25.39 25.39 0 0 1-9.43 2.46c-2.45.12-4.91.17-7.36.3-5.72.29-11.44.54-17.15.94-10.83.77-21.67.69-32.51.69-2 0-3.95-.17-5.93-.27-5.85-.31-11.71-.56-17.56-.95a89.53 89.53 0 0 1-11.76-1.46 7.68 7.68 0 0 1-5.92-5.07 44.73 44.73 0 0 1-2.39-8.65 87.68 87.68 0 0 1-1-10c-.42-7.43-.33-14.86-.19-22.3v-5.31a21.86 21.86 0 0 0-.73-6.18 1.7 1.7 0 0 1 1.19-.54c2.06-.46 4.06-1.13 6.07-1.78 4.66-1.53 9.33-3 14-4.55a30.44 30.44 0 0 0 4.14-1.73c2.32-1.17 3.07-2.61 2.68-5.16s-1.42-4.95-3.92-6.38a9 9 0 0 0-3-.71 13.58 13.58 0 0 1 .58-5.47 20 20 0 0 1 2.81-5.65 101.74 101.74 0 0 0 6.08-9.44c.29-.54.6-1.08.89-1.62.87-1.62.87-1.65 2.62-1.58 1.22 0 2.45.12 3.66.28a18.93 18.93 0 0 0 4.69.18c2.44-.27 4.73.46 7.07.89.49.09.63.45.73.86.34 1.53.69 3.06 1 4.59a8.36 8.36 0 0 0 .23 1 .83.83 0 0 0 1 .52.69.69 0 0 0 .54-.76 13.62 13.62 0 0 0-.27-1.81q-2.83-12.56-5.68-25.11c-1-4.38-1.9-8.79-3.15-13.11-1.33-4.57-2.64-9.15-4-13.73a9.24 9.24 0 0 1-.18-1 .92.92 0 0 1 1-.08 8.75 8.75 0 0 0 2.22.32A76 76 0 0 0 387 216a20.5 20.5 0 0 0 8.07-3.1c.47.26.48.69.6 1.08 2.38 7.46 4.57 15 6.48 22.57.52 2.11 1.22 4.18 1.85 6.26a3.55 3.55 0 0 1 .26 1.4c.15.3.3.6.47.89a.76.76 0 0 0 .86.38.83.83 0 0 0 .61-.94c-.16-.73-.37-1.45-.58-2.16-.61-2.09-1.32-4.16-1.84-6.27-2.17-8.73-4.8-17.31-7.62-25.85a4.77 4.77 0 0 0-2.23-2.77 9.57 9.57 0 0 0-4.27-1.28 18.07 18.07 0 0 1-3-.24 1.41 1.41 0 0 0-1.81.94l-1.07-1.37c-.29-.37-.49-.91-.87-1.1a2.61 2.61 0 0 1-1.31-2.16c-.06-.41-.17-.8-.26-1.2a44 44 0 0 0-2.42-8.42 17 17 0 0 0-8.58-8.93c-.93-.42-1.84-.89-2.78-1.28-5.38-2.29-10.75-4.63-16.17-6.83a48.69 48.69 0 0 0-10.75-3.17 11.05 11.05 0 0 0-8 1.66 14.48 14.48 0 0 0-3.65 3.24c-1.3 1.67-2.58 3.35-3.82 5.06a39.23 39.23 0 0 1-3.55 4.48 9.24 9.24 0 0 0-1.15 1.43 2.79 2.79 0 0 0 .47 3.86c.38.38 1 .48 1.22 1.14-.25.42-.56.86-.79 1.34a12.35 12.35 0 0 0-.85 2.07 3.42 3.42 0 0 0 2.36 4.36 5.93 5.93 0 0 0 1.39.29 13.45 13.45 0 0 0 4.47-.26 27.24 27.24 0 0 0 4.49-1.34 1 1 0 0 1 1.14.1 9.44 9.44 0 0 0 5.11 2 3.78 3.78 0 0 0 1.17 3 4.33 4.33 0 0 0 4.93.8 17.12 17.12 0 0 0 2.09-1.27c.69-.45 1.36-.91 2-1.38a2.22 2.22 0 0 1 2.68 0c.64.39 1.28.77 1.91 1.18a11.85 11.85 0 0 0 6.66 2.28.84.84 0 0 1 .88.68c.41 1.3.79 2.61 1.24 3.89a2.72 2.72 0 0 1 0 2.15 6.48 6.48 0 0 0-.19 4.41c.57 2 1 3.95 1.59 5.91 1.9 6.61 3.89 13.19 5.31 19.93 1.27 6 2.72 11.95 4.08 17.92a9.9 9.9 0 0 1 .22 1.21c0 .37.38.75 0 1.21a18.28 18.28 0 0 1-2.12-.34A13.28 13.28 0 0 0 367 263a19.69 19.69 0 0 1-3.68-.09c-1.56-.14-3.12-.21-4.69-.32-.38 0-.82.14-1.17-.32-.08-.53-.16-1.13-.26-1.73a3.81 3.81 0 0 0-.83-1.84 1.65 1.65 0 0 0-2.78 0 12.46 12.46 0 0 0-1.17 1.92c-.63 1.2-1.22 2.43-1.83 3.64-.14.09-.3.33-.43.23s-.1-.42 0-.64c.13-.74.28-1.47.37-2.22a12.33 12.33 0 0 0-.69-6.82c-1.12-2.4-3.57-4.3-6.89-2.58l-.18.09a4.85 4.85 0 0 1-4.33.19 11.71 11.71 0 0 1-2-1 4.51 4.51 0 0 0-2.92-.75 4 4 0 0 1-3-.88c-.28-.2-.6-.34-.88-.53a14.75 14.75 0 0 0-9.74-2.35 45.27 45.27 0 0 0-6.84 1.17c-4.65 1-9.28 2.2-14 2.81-2.91.38-5.82.72-8.73 1-1.76.2-3.52.35-5.29.52a2 2 0 0 1-1.82-.7 56.22 56.22 0 0 0-7.09-6.16c-.82-.61-1.58-1.3-2.38-1.94a2.05 2.05 0 0 1-.82-1.33 7.69 7.69 0 0 0-2.17-3.86c-.52-.55-1.09-1-1.65-1.54a.65.65 0 0 1-.08-1 21.87 21.87 0 0 0 3.25-4.94c1.74-3.78 3.67-7.46 5.19-11.33a11.27 11.27 0 0 1 1.35-2.51 1.6 1.6 0 0 1 1.33-.78 4.29 4.29 0 0 0 3.11-1.74 7.12 7.12 0 0 0 1.56-3.07 21.6 21.6 0 0 0 .05-9.73 2.5 2.5 0 0 1 .35-2.11 19.31 19.31 0 0 0 2.7-6.35 25.06 25.06 0 0 0 .51-10.34c-.17-.93-.72-1.9-.57-2.76a9.81 9.81 0 0 1 1.44-2.67 3.5 3.5 0 0 0 .29-.54 87.13 87.13 0 0 1 6.11-10.38c3.79-5.74 7.52-11.53 11.11-17.4q5.81-9.51 11.71-18.95c2.93-4.68 5.81-9.39 8.42-14.25a16.1 16.1 0 0 1 1.75-2.76c2.42-2.91 3.79-6.45 5.86-9.56a.69.69 0 0 0-1.12-.8 7.36 7.36 0 0 0-.88 1.12 22.67 22.67 0 0 0-1.27 2.32 22.09 22.09 0 0 1-2.51 4.21 50.66 50.66 0 0 0-4.14 6.56c-1.61 3-3.35 5.93-5.15 8.82q-5.31 8.49-10.57 17c-4.3 7-8.52 14-13.07 20.75a97.36 97.36 0 0 0-8 13.53 11.9 11.9 0 0 1-.72 1.2c-.56-.2-.67-.71-.94-1.09-.76-1.05-1.45-2.15-2.27-3.15a50.76 50.76 0 0 0-9.81-9.27c-.78-.55-1.53-1.15-2.28-1.74-.2-.16-.45-.33-.24-.77h2.14a.83.83 0 0 0 .73-.63.8.8 0 0 0-.34-.9 7.44 7.44 0 0 0-1.07-.59l-2.81-1.21c-.85-.36-.86-.37-.71-1.38.41-2.76.85-5.52 1.25-8.29.66-4.65 1.3-9.31 2-14q.66-4.75 1.31-9.51c.07-.48.12-1-.47-1.21s-.88.23-1 1v.2c-.36 3.94-1.08 7.83-1.63 11.74-.75 5.26-1.41 10.54-2.17 15.8a23 23 0 0 1-.92 4.67l-2.53-.71c-.85-.24-1.7-.51-2.56-.72s-1.73-.35-2.61-.5-1.61-.27-2.42-.38-1.76-.21-2.64-.27-1.77-.07-2.66-.11a16.85 16.85 0 0 1-2.56-.08c0-.47.33-.55.52-.71a7 7 0 0 0 .76-.67.75.75 0 0 0 0-1 .73.73 0 0 0-.88-.32c-.38.14-.75.31-1.12.49a53.32 53.32 0 0 0-17.62 13c-.58.67-1.17 1.33-1.74 2-.36.43-.67.82-1.35.66s-.86.27-1.09.73c-.59 1.22-1.19 2.45-1.81 3.66a37.34 37.34 0 0 0-3.85 18.4 39.82 39.82 0 0 0 1.37 9c-2 .37-2.44 2-2.84 3.59a9.26 9.26 0 0 0-.2 2 27.21 27.21 0 0 0 .62 6.3 14.14 14.14 0 0 0 2 4.66 3.8 3.8 0 0 0 3.15 2c1.33 0 2 .49 2.18 1.79a4.83 4.83 0 0 0 .33 1 57.93 57.93 0 0 0 7.64 15.29 2 2 0 0 1 .18.61c-.74.53-1.47 1-2.17 1.55-1.63 1.22-3.54 2.08-4.76 3.81a2.33 2.33 0 0 1-.87.51 17.23 17.23 0 0 0-4 2.81 100.46 100.46 0 0 1-8.63 6.88c-1.61 1.24-3.32 2.37-5 3.56a3.43 3.43 0 0 1-2.08.7 54.9 54.9 0 0 1-12.4-1.12c-3-.68-6-1.39-9-2a12.78 12.78 0 0 0-5.87-.2 18.19 18.19 0 0 0-4.7 1.93c-4.28 2.4-8.33 5.17-12.5 7.75-6.09 3.76-12 7.81-18.22 11.33a139.78 139.78 0 0 1-20.17 9.84 32.07 32.07 0 0 1-7.31 1.82 14.52 14.52 0 0 1-10.27-2.55c-.73-.5-1.48-1-2.17-1.53a10.17 10.17 0 0 0-5.48-2c-3.66-.42-6.82-1.88-8.84-5.17a62.44 62.44 0 0 0-3.72-5.04 16.77 16.77 0 0 0-3-3 37 37 0 0 0-5.07-3.43 21.42 21.42 0 0 1-2.79-1.7 12.69 12.69 0 0 0-10.86-2.08c-.75.16-.85.14-1.24-.66a19.43 19.43 0 0 0-2.43-3.9 96.63 96.63 0 0 0-11.33-12.3c-.32-.28-.88-.43-.78-1.06 1.22-.17 2.44-.29 3.65-.53a32.81 32.81 0 1 0-12.56-64.41c-11.09 2.23-19 8.85-23.61 19.2-.51 1.13-1 1.65-2.33 1.63a4.77 4.77 0 0 0-4.77 3.18c-.26.63-.51 1.27-.74 1.91a28.28 28.28 0 0 0-1 12.73 55.65 55.65 0 0 0 1.47 7 79.85 79.85 0 0 0 3 10.18A58.54 58.54 0 0 0 21.35 247a64.06 64.06 0 0 0 7.63 8.8c3.39 3.07 6.66 6.26 9.94 9.43a23.77 23.77 0 0 0 5.24 3.89c.38.2.87.31 1 .94-.39.35-.8.71-1.19 1.08a2.66 2.66 0 0 0-.72 2.82 6.86 6.86 0 0 0 .5 1.33 15 15 0 0 0 3.77 5 .92.92 0 0 1 .41 1 4.6 4.6 0 0 0 .76 3.11 30.28 30.28 0 0 0 2.1 3.27 83.71 83.71 0 0 0 6.31 7.52c3.25 3.49 6.6 6.89 9.79 10.44 4.47 5 9.07 9.82 13.72 14.62 1.42 1.47 2.88 2.91 4.4 4.28a21.24 21.24 0 0 0 11.51 5.29 36.21 36.21 0 0 0 10.6-.17c2.35-.37 4.7-.8 7-1.33 9.56-2.19 19.11-4.39 28.65-6.66 3.9-.93 7.75-2.11 11.65-3.05 8.4-2 16.83-3.95 25.25-5.92a4.31 4.31 0 0 1 1.84-.13c.05.31.11.57.13.83.43 4.07.82 8.14 1.27 12.2.64 5.69 1.28 11.38 2 17.06.32 2.64.75 5.26 1.13 7.89a5.57 5.57 0 0 0 .22 1 1 1 0 0 0 1.26.78 4.92 4.92 0 0 0 .93-.24 10 10 0 0 1 0 1.1c-.62 4.8-1.31 9.58-2.26 14.33-1 4.94-1.86 9.91-2.93 14.83-.86 4-1.76 8-2.52 12q-1.45 7.72-2.7 15.5c-.54 3.36-1 6.75-1.3 10.14a141.25 141.25 0 0 0-.47 15.94v3.88h1.64c0-.41.09-.81.09-1.21 0-3.28-.08-6.55-.05-9.82a123.53 123.53 0 0 1 1.75-18.71c.85-5.24 1.77-10.48 2.72-15.7.55-3 1.28-6 1.85-9a1.86 1.86 0 0 1 1.49-1.65 61.21 61.21 0 0 1 6.76-1.56c5.86-.92 11.7-1.89 17.6-2.53 1.28-.14 2.55-.41 3.83-.63a2.15 2.15 0 0 0 2-2.6 12.46 12.46 0 0 0-.19-2 1.79 1.79 0 0 0-2.18-1.65c-1.7.13-3.4.3-5.08.55q-9 1.32-18 2.73c-1.21.19-2.39.52-3.59.77-.54.12-.75-.11-.65-.64.72-3.74 1.48-7.48 2.16-11.23a125.5 125.5 0 0 0 1.91-14.59 12.43 12.43 0 0 0-.05-1.83.78.78 0 0 0-.6-.74 1.09 1.09 0 0 0-1.11.31c-.33.32-.32.91-.86 1.06h-.21a.3.3 0 0 1-.07-.18c-.16-1.08-.34-2.15-.47-3.23q-1.22-10.37-2.4-20.71c-.45-4-.87-8-1.23-12a92.28 92.28 0 0 1 .07-12.88q.33-6.65 1.13-13.24a140.47 140.47 0 0 1 4.09-22.08 36.45 36.45 0 0 0 1.28-5.77 18.92 18.92 0 0 1 .43-1.88c1.61.37 3.14.7 4.65 1.06a42.7 42.7 0 0 0 10.32 1.21h1.23a5.77 5.77 0 0 1 2 .13c.65.28.5 1.19.79 1.8a11.71 11.71 0 0 0 3.28 4.1c.67.54.7.58.38 1.34-.83 2-1.7 4-2.54 6-.66 1.57-1.29 3.15-2 4.71a7.75 7.75 0 0 0 .75 7.6c.66 1 1.37 2 2.1 3a142.64 142.64 0 0 0 14 16.23q6.21 6.09 12.38 12.22a71.69 71.69 0 0 0 7.14 6.11c1.35 1 2.7 2.07 4.07 3.08a1.4 1.4 0 0 1 .62 1.4c-.21 1.82-.36 3.66-.57 5.49a54.4 54.4 0 0 0-.29 6.12q0 12.89-.05 25.77c0 5.18 0 10.36-.24 15.54a151.92 151.92 0 0 0 2.56 36 8.8 8.8 0 0 1-.07 3.65 61.37 61.37 0 0 1-4.86 13.4c-.87 1.78-1.86 3.49-2.8 5.22a4.52 4.52 0 0 0-.7 1.47h2a1.77 1.77 0 0 1 .4-1.13 69.91 69.91 0 0 0 6.58-15 2.43 2.43 0 0 1 .16-.37c0-.05.11-.12.14-.11s.3.09.31.16c.33 1.52.65 3.05 1 4.58a87.24 87.24 0 0 0 3.11 11.56 2.5 2.5 0 0 0 .21.35h1.64c-.69-2.28-1.43-4.55-2.05-6.84-1.21-4.48-2-9-2.82-13.6-.63-3.62-1.21-7.26-1.77-10.89a138.14 138.14 0 0 1-1.39-18.97c-.06-3.68.06-7.36.2-11 .15-3.95.15-7.91.16-11.86 0-9.27 0-18.55.05-27.82a86.84 86.84 0 0 1 .75-11c.55-.3.8.14 1.11.34 1 .66 2 1.38 3.09 2a1.53 1.53 0 0 0 2.28-.53 55.81 55.81 0 0 1 6.62-7.77c2.48-2.62 5.08-5.14 7.64-7.7.57-.57 1.16-1.14 1.73-1.74 5.81-6.14 11.76-12.14 17.79-18.07 1.11-1.1 2.13-2.3 3.15-3.48a4.29 4.29 0 0 0 .83-4.38c-1.6-5.56-3.07-11.15-4.6-16.73-.07-.26-.16-.52-.24-.78-.16-.49.09-.76.51-.95a12.58 12.58 0 0 1 2.73-.81 8 8 0 0 0 1.2-.27c1.1-.41 1.31-1.17.59-2a10.1 10.1 0 0 0-.87-.86 116.86 116.86 0 0 1-8.82-9.39 1.11 1.11 0 0 1-.13-.35c0-.07 0-.15.06-.19a.42.42 0 0 1 .2 0c1.28-.13 2.57-.27 3.86-.39a125.2 125.2 0 0 0 18.57-2.81c.27-.07.54-.08.8-.15a1.23 1.23 0 0 1 1.44.45 37.29 37.29 0 0 1 4.58 6.25 1.59 1.59 0 0 0 .47.65.91.91 0 0 1 .38 1.06 7.94 7.94 0 0 0 .52 4.21c1 2.48 1.37 5.13 2 7.71 1.49 6.43 2.95 12.87 5.74 18.91.11.25.18.51.28.77a2.53 2.53 0 0 1-2 .49c-3.25 0-5.15 1.69-6.12 4.71a27.5 27.5 0 0 0-1.09 5 8.33 8.33 0 0 0 .33 3.64 5.54 5.54 0 0 0 4.41 4.06l1 .23c.06 0 .11.08.24.2-.36.69-.75 1.39-1.13 2.1a125 125 0 0 0-10 24.33 51.9 51.9 0 0 0-1.92 12.7 102.29 102.29 0 0 0 1.96 22.67c.29 1.54.59 3.08.87 4.62a.39.39 0 0 1-.46.49c-1.55-.21-3.12-.37-4.65-.69-2.86-.6-5.7-1.3-8.56-1.95a41.52 41.52 0 0 1-4.89-1.44 8.29 8.29 0 0 0-2.79-.59 1.2 1.2 0 0 0-1.19.64 11 11 0 0 0-1.2 3.66 2.16 2.16 0 0 0 1.12 2.23 14.76 14.76 0 0 0 3.21 1.32c3 .95 6 1.88 8.94 2.85a47.16 47.16 0 0 0 8.4 1.68l3.63.47a13.31 13.31 0 0 1 1 3.72q2.65 12.79 5.21 25.62c.91 4.61 1.69 9.25 2.6 13.86.69 3.47 1.5 6.92 2.26 10.38a4 4 0 0 1 .22 2h2c-.81-3.52-1.72-7-2.42-10.54-1.56-7.82-3-15.65-4.52-23.47-1.38-6.94-2.82-13.87-4.27-20.8-1.4-6.67-2.79-13.33-3.78-20.07a88.23 88.23 0 0 1-.88-17.94 53.39 53.39 0 0 1 2.91-14.79 147.31 147.31 0 0 1 8.92-20.8 2.89 2.89 0 0 1 1-1.41 7.31 7.31 0 0 1 .57 3.07c0 3.41.09 6.82 0 10.23-.16 7.84-.07 15.67.48 23.5A52.41 52.41 0 0 0 327 361a12.63 12.63 0 0 0 1.52 3.11 9 9 0 0 0 5.42 3.73 56.6 56.6 0 0 0 7.67 1.18c4.74.48 9.5.74 14.27.92 3.2.11 6.4.37 9.6.54 1.9.1 3.81.13 5.71.2.79 0 .92.15 1 1 .17 1.77.31 3.53.46 5.3.6 7.26 1.18 14.53 1.8 21.79s1.25 14.26 1.85 21.39c.48 5.63.92 11.27 1.39 16.9.08.95.24 1.89.36 2.84h1.63q-.84-9.88-1.69-19.77c-.48-5.57-1-11.13-1.45-16.7-.34-3.94-.64-7.89-1-11.83-.48-5.63-1-11.27-1.46-16.91q-.13-1.53-.21-3.06c0-.82 0-.89.94-.9 4.5 0 9 0 13.5-.09 6.34-.08 12.67-.51 19-.89 5.23-.31 10.47-.71 15.73-.76a33.18 33.18 0 0 0 12-1.92c.63-.25 1.26-.5 1.88-.78 5-2.25 7.48-6.43 7.23-12.16a33.45 33.45 0 0 0-2.33-10.74 32.57 32.57 0 0 0-6.65-10.46 21.62 21.62 0 0 0-4.58-3.73 37.23 37.23 0 0 0-16.75-5.42 22 22 0 0 0-5.5.34c-.5.17-1 .46-1.35-.26a40.7 40.7 0 0 0 4.8-5.57c.93.44 1.78.86 2.64 1.25a21.56 21.56 0 0 0 6.7 1.72l14.87 1.47a10.43 10.43 0 0 1 5.15 2.17 14.65 14.65 0 0 1 2.87 2.91 37.64 37.64 0 0 1 7.68 19.5 110.37 110.37 0 0 1 .34 15.32 83.59 83.59 0 0 1-1.76 13.37c-.73 3.67-1.61 7.32-2.07 11a18.59 18.59 0 0 0-.1 4.28 8.75 8.75 0 0 0 1.13 3.48 3.72 3.72 0 0 1 .32 3.15 27 27 0 0 0-1 8.29 83.53 83.53 0 0 0 .86 11.61c.7 5.41 1.62 10.8 1.38 16.28-.09 1.9-.24 3.8-.36 5.71h1.64c0-.41.06-.82.1-1.23a63.74 63.74 0 0 0-.36-15.49c-.56-3.91-1.07-7.84-1.36-11.78-.34-4.55-.52-9.13.87-13.59a4.17 4.17 0 0 0-.44-3.36 10.63 10.63 0 0 1-1.06-6.74c.25-2.37.77-4.7 1.23-7 .78-3.94 1.71-7.86 2.17-11.86a103 103 0 0 0 .16-21.43 38.72 38.72 0 0 0-6.91-19 21.34 21.34 0 0 0-3.64-4.12c-.24-.21-.61-.35-.57-.87.5 0 1-.06 1.53-.16 1.43-.28 2-1.17 1.59-2.5-.63-1.87-1.35-3.71-2.13-5.53a3.62 3.62 0 0 0-4.23-2.41 3.74 3.74 0 0 1-.58 0c-.06-.07-.14-.12-.15-.17a78.14 78.14 0 0 1-1.57-8.43 3.31 3.31 0 0 1 .39-2c.12-.27.35-.41.64-.18s.7.66 1.09.92a4 4 0 0 0 4.6-.12 5.06 5.06 0 0 0 1.66-2 6.08 6.08 0 0 0 .48-3.39 2.64 2.64 0 0 1 .33-1.75 11.67 11.67 0 0 0 1.13-9.46 1.25 1.25 0 0 1 .22-1.3 21.11 21.11 0 0 0 2.53-4c.79-1.45.78-1.28 2.43-1.25a4.52 4.52 0 0 1 3.66 2.19 20.17 20.17 0 0 1 1.44 2.23 29.79 29.79 0 0 1 3.34 10.24c.65 4.25.89 8.54 1.2 12.82a96 96 0 0 0 1.27 11 66.4 66.4 0 0 0 4.93 15.75 39.52 39.52 0 0 0 7.9 11.35 53 53 0 0 0 18.64 11.89 27.33 27.33 0 0 0 4.73 1.29c2.6.47 5.25.7 7.83 1.34a.72.72 0 0 0 .87-.34.72.72 0 0 0-.2-.91ZM384.09 209.28c.43-.18 1-.39 1.08-.87.2-.74.52-.9 1.29-.75a19.15 19.15 0 0 0 2.85.16 7.9 7.9 0 0 1 3.14.78 6.49 6.49 0 0 1 1.37.87 1.21 1.21 0 0 1 .05 2.07 7 7 0 0 1-2.1 1.23 33.32 33.32 0 0 1-7.47 2 59.26 59.26 0 0 1-11.59.86h-5.1a7.87 7.87 0 0 1-2.41-.42c-.64-.2-.72-.74-.24-1.24a1.79 1.79 0 0 1 1.06-.55c.74-.1 1.49-.2 2.22-.33a124.93 124.93 0 0 0 13.92-3.12 19.09 19.09 0 0 0 1.93-.69Zm-.92-1.55a28 28 0 0 1-6 1.77 43.24 43.24 0 0 1-6.17 1.25c-.38.11-.8.3-.71-.41l6.94-2.89c.81-.34 1.65-.62 2.46-1 2.39-.96 1.87-1.21 3.48 1.28Zm-50-9.8a1 1 0 0 1-.18.09 21 21 0 0 1-7.34 1.71 6.3 6.3 0 0 1-2.33-.29 1.78 1.78 0 0 1-1.21-2.26 7.94 7.94 0 0 1 2-3.51.88.88 0 0 1 1.48.29c.91 2.38 2.87 3.09 5.15 3.22a11.88 11.88 0 0 0 2.22-.18.4.4 0 0 1 .48.23.57.57 0 0 1-.3.7Zm30.14 8.49a.83.83 0 0 1 .45-1 12.72 12.72 0 0 0 2.73-2.45c.6-.7.69-1.31.26-1.59s-.74-.08-1.38.53-1.26 1.24-1.95 1.8a4.44 4.44 0 0 1-3.63.94 10.44 10.44 0 0 1-3.79-1.43c-.88-.52-1.75-1.06-2.61-1.61a3.93 3.93 0 0 0-4.76 0c-.72.51-1.45 1-2.18 1.51a6.92 6.92 0 0 1-2 1.07 2.75 2.75 0 0 1-2.81-.75 1.54 1.54 0 0 1-.47-1.09 1 1 0 0 1 .51-1c2.8-1.42 4.84-3.71 6.88-6a4 4 0 0 0 1-1.55.63.63 0 0 0-.26-.71.62.62 0 0 0-.76 0 8.57 8.57 0 0 0-.8.9 36 36 0 0 1-5.17 4.93c-2.38 2-4.89 1.13-6.62 0-.86-.54-1-1.12-.55-2.1a6.06 6.06 0 0 1 1.11-1.71c1.21-1.38 2.44-2.74 3.67-4.12 1-1.06 1.92-2.12 2.84-3.21a9.65 9.65 0 0 0 .89-1.36.7.7 0 0 0-.22-.91.79.79 0 0 0-1.1.07c-.23.26-.4.55-.62.81-.75.89-1.45 1.82-2.26 2.64-1.52 1.57-3 3.19-4.39 4.85a5.81 5.81 0 0 1-7.25.79 3.48 3.48 0 0 1-.77-.93 1.44 1.44 0 0 1 0-1.72 17.17 17.17 0 0 1 2.48-2.7c1.4-1.3 2.82-2.57 4.2-3.89 1-.94 1.94-1.92 2.89-2.89a7.82 7.82 0 0 0 .76-1 .67.67 0 0 0-.09-.92.78.78 0 0 0-1.09-.07 5.3 5.3 0 0 0-.59.57c-2 2.21-4.26 4.21-6.47 6.24a17 17 0 0 0-3.56 3.91 1.14 1.14 0 0 1-1 .53 4.15 4.15 0 0 1-2.17-.48c-1.18-.55-1.37-1.41-.61-2.47a4.39 4.39 0 0 1 .51-.63 45.38 45.38 0 0 0 4.67-5.94c1.13-1.53 2.26-3.08 3.52-4.5a11 11 0 0 1 6.58-3.82 13.7 13.7 0 0 1 5.06.47 50 50 0 0 1 8.54 2.73c4.85 2 9.66 4 14.48 6.09 1.5.64 3 1.36 4.45 2a15.08 15.08 0 0 1 7 6.9 16.41 16.41 0 0 1 1.44 3.6c.66 2.57 1.23 5.16 1.85 7.74.13.54 0 .92-.53 1.13s-1.38.58-2.08.84a101 101 0 0 0-11.58 5.07 1.89 1.89 0 0 1-1.25.39c-.49-1.41-.95-2.92-1.43-4.5ZM70.69 231.54A30.8 30.8 0 0 1 50.53 241a5.35 5.35 0 0 1-.8 0s-.09-.07-.14-.12c-.11-.55.32-.85.6-1.2a15.52 15.52 0 0 1 6.5-4.76 79.51 79.51 0 0 1 11.1-3.31c1-.25 2.11-.47 3.17-.71.13.3-.11.47-.27.64Zm6.41-10.09a8.38 8.38 0 0 0-4-3.13 4.25 4.25 0 0 1-2.58-3.86c-.12-2.11-.19-4.22-.25-6.33a43.24 43.24 0 0 0-.28-4.69 30.92 30.92 0 0 1-.21-3.47 8.53 8.53 0 0 1 2.62-6.43c.43-.44.88-.84 1.33-1.26 5.88 6.91 7.53 20.05 3.37 29.17Zm-20.83-41.66-.88.61a12.22 12.22 0 0 0-3.46 3.7c-.32.52-.63 1.05-.93 1.58a10.46 10.46 0 0 1-8.62 5.38c-1.9.19-3.81.27-5.71.32a7.6 7.6 0 0 0-4.37 1.45c-.78.55-1.56 1.09-2.37 1.59a8.42 8.42 0 0 1-6.06 1.16 9.54 9.54 0 0 0-3.27-.36c6.47-13.57 23.49-19.6 35.67-15.43ZM18 201.29c.42-1.29.88-2.57 1.36-3.85a1 1 0 0 1 .91-.67 9.07 9.07 0 0 1 2.85.16 9.87 9.87 0 0 0 8-1.46c.64-.4 1.26-.82 1.86-1.27a6.51 6.51 0 0 1 3.78-1.36c1.36-.07 2.72-.11 4.08-.13a16.78 16.78 0 0 0 5.21-1 10.86 10.86 0 0 0 5.81-4.6c.53-.87 1-1.75 1.59-2.62a10.22 10.22 0 0 1 4.17-3.81 2.15 2.15 0 0 1 1.93-.09A31.39 31.39 0 0 1 72 189.57c.35.41.68.85 1 1.27-.26.71-.9 1-1.37 1.52a10.3 10.3 0 0 0-3.35 8.44c.1 1.43.31 2.85.39 4.27.14 2.72.22 5.45.33 8.17 0 .55 0 1.1.08 1.64a5.5 5.5 0 0 0 2.84 4.46c.72.39 1.46.74 2.16 1.16a3.57 3.57 0 0 1 1.25 4.79c-.42.78-.94 1.5-1.39 2.27a2.51 2.51 0 0 1-2.57 1.59c-5.09 1.47-10.35 2.35-15.27 4.42a16.59 16.59 0 0 0-6.3 4.43 9.75 9.75 0 0 0-1.65 2.33 1.38 1.38 0 0 1-1.63.84c-1.08-.14-2.18-.19-3.26-.32a11.17 11.17 0 0 1-1.35-.35c.39-1.1.8-2.11 1.1-3.15a6.51 6.51 0 0 0-1.53-6.46 33.57 33.57 0 0 0-2.69-2.5 20.63 20.63 0 0 1-6.7-11.42 15.18 15.18 0 0 1-.22-2 10.21 10.21 0 0 0-3.43-7.18 20.27 20.27 0 0 0-6.16-3.93c-1.2-.5-2.43-.89-3.65-1.31-.76-.34-.9-.5-.63-1.26Zm-.76 3.22c.13-.76.41-1 1.11-.74a24.83 24.83 0 0 1 8.75 4.7 8.79 8.79 0 0 1 3.27 6.35 20.91 20.91 0 0 0 4.72 11.77 23.1 23.1 0 0 0 3.45 3.47 21.4 21.4 0 0 1 2.05 2 4.54 4.54 0 0 1 1.2 3.08 6.48 6.48 0 0 1-.46 2.7c-1.24 3-.76 2.56-3.41 1.58-11.36-4.17-18.19-12.3-20.63-24.11a29 29 0 0 1-.08-10.8Zm31.17 65.17a41.62 41.62 0 0 1-10.16-7.48c-2.34-2.48-4.86-4.78-7.42-7a62.38 62.38 0 0 1-7.59-8.56 60.92 60.92 0 0 1-4.38-6.41 54.65 54.65 0 0 1-6.13-15.51 74.48 74.48 0 0 1-1.92-9 26 26 0 0 1 1-11.71c.18-.51.38-1 .58-1.53a3.54 3.54 0 0 1 3.52-2.3c.52 0 .73.23.62.74-.23 1.07-.5 2.13-.69 3.2a32.74 32.74 0 0 0 20.79 36.47 31.83 31.83 0 0 0 9.35 2 3.82 3.82 0 0 1 2.06.74 27.84 27.84 0 0 1 3.3 2.67 101.34 101.34 0 0 1 10.34 11.58 13.93 13.93 0 0 1 2 3.6 3.12 3.12 0 0 1-.43.4c-4.34 2.68-8.7 5.34-13 8.05a1.58 1.58 0 0 1-1.87.05Zm140.23-12.25a46.21 46.21 0 0 1-1.1 5.2 109.2 109.2 0 0 0-2.9 12.1c-.72 4.37-1.35 8.76-1.85 13.16-.7 6.17-1.09 12.35-1.25 18.56v3.27c0 .81-.14 1-.83 1.14-9 2-17.94 4-26.85 6.19-3.83 1-7.61 2.1-11.45 3q-14.3 3.39-28.64 6.65a76.1 76.1 0 0 1-9.25 1.6 30.12 30.12 0 0 1-9.56-.49 19.08 19.08 0 0 1-8.78-4.56c-1.61-1.46-3.17-3-4.68-4.57-4.5-4.66-9-9.35-13.28-14.18-3.14-3.49-6.45-6.84-9.66-10.28a87 87 0 0 1-7.16-8.66 11.9 11.9 0 0 1-1.63-2.83c-.43-1.19-.32-1.48.74-2.15a59.81 59.81 0 0 0 7.6-5.51c2.87-2.52 5.81-4.95 8.77-7.37a12.86 12.86 0 0 0 1.7-1.7 1.88 1.88 0 0 0 0-2.75c-.31-.4-.86-.63-1-1.19a10.15 10.15 0 0 1 7.66 1.28c1.65 1.09 3.37 2.06 5.06 3.09a23.22 23.22 0 0 1 7.15 6.31c1 1.44 2.12 2.83 3.08 4.33 2.23 3.47 5.64 5.06 9.54 5.61a10 10 0 0 1 5.45 2c.36.31.79.53 1.17.82a16.87 16.87 0 0 0 8.43 3.35c.92.12.92.12 1.16 1.05a23 23 0 0 0 5.27 9.35 63.2 63.2 0 0 0 5 4.84c.55.51 1.14.53 1.42.13a1 1 0 0 0-.24-1.28c-.82-.82-1.67-1.6-2.52-2.38a29.78 29.78 0 0 1-6-7.49 26.57 26.57 0 0 1-1.19-2.6 2.48 2.48 0 0 1-.18-1.48c1.55-.31 3.14-.6 4.72-.94a15.87 15.87 0 0 0 2.36-.66 115.33 115.33 0 0 0 13.64-6c6.55-3.5 13-7.21 19.21-11.25s12.56-7.91 18.86-11.85c.63-.39 1.3-.72 2-1.08a10.41 10.41 0 0 1 7.1-1.2l2.41.47c.42.16.54.52.47.95Zm86.5 3c.05-.11.2-.17.52-.44 1.47 5.49 3.41 10.71 5 16.14l-4.61.49A28.68 28.68 0 0 0 265 280l-.35.21a.71.71 0 0 0-.33.87.67.67 0 0 0 .81.46 2.71 2.71 0 0 0 .94-.33 28.16 28.16 0 0 1 10.34-2.94c1.22-.16 2.44-.26 3.67-.34.92-.06 1.1.07 1.29.91a39.91 39.91 0 0 1 .81 4 43.21 43.21 0 0 1 .25 4.69 8.93 8.93 0 0 1-1.19 4.29 30 30 0 0 1-6.71 8.43 33.45 33.45 0 0 1-5.09 3.76 36.41 36.41 0 0 0-9.16 7.12c-.14.16-.32.29-.51.15a.94.94 0 0 1-.29-.5c-.44-2.48-.81-5-1.3-7.44-.76-3.82-1-7.7-1.57-11.54q-.75-5.06-1.51-10.1c-.39-2.56-.79-5.12-1.23-7.67a1.57 1.57 0 0 1 .18-1.15c1.21-2.21 2.43-4.41 3.65-6.62.25-.45.48-.5 1-.2 1.31.72 2.61 1.47 3.91 2.22s2.34 1.4 3.55 2c1.54.79 2.16.64 3.09-.78 1.98-3.03 4.3-5.82 5.86-9.11Zm-23.67 13.53c-.24.41-.56.77-.81 1.12a1.36 1.36 0 0 1-1-.73 44.11 44.11 0 0 1-3.71-6.1 5.55 5.55 0 0 1-.45-4.35c.26-.78.48-1.56.73-2.34a4.16 4.16 0 0 1 .58-1.5c.44-.48 1 .1 1.52.16a7 7 0 0 0 4.76-.85c.95 1.33 1.84 2.52 2.69 3.75a2.55 2.55 0 0 1 .11 3c-1.56 2.56-2.98 5.2-4.45 7.8ZM234 231.09a77.93 77.93 0 0 1-5-11.84 4.3 4.3 0 0 1-.2-.57c-.13-.67-.61-.86-1.19-.91a7 7 0 0 0-1 0 2.8 2.8 0 0 1-2.68-1.54 12.67 12.67 0 0 1-1.64-3.95 26.27 26.27 0 0 1-.57-6.5 6.92 6.92 0 0 1 .57-2.58c.29-.66.55-.76 1.27-.49 1.18.45 1.39.39 2-.59.21-.34.38-.7.56-1.05.54.26.47.71.51 1.09.18 1.7.33 3.39.49 5.09 0 .34 0 .68.1 1a1.05 1.05 0 0 0 1.26 1c1.16-.08 2.31-.21 3.46-.33l13.82-1.53c1.28-.14 2.57-.27 3.86-.43s1.65-.49 1.52-1.84-.26-2.71-.42-4.07a1.06 1.06 0 0 1 .61-1.16 5.89 5.89 0 0 1 3.9-.9 1.15 1.15 0 0 1 1.1 1c.31 1.6.7 3.19 1 4.79.06.26.09.54.15.8.4 1.63.49 1.73 2.24 1.48 3.31-.46 6.61-1 9.91-1.45 2.29-.34 4.58-.7 6.87-1.06a9.64 9.64 0 0 0 1.19-.24.88.88 0 0 0 .67-.92 13.6 13.6 0 0 0-.12-1.42q-.48-3.85-1-7.71c-.06-.4-.13-.81-.23-1.21a.9.9 0 0 0-1-.78 10.13 10.13 0 0 0-1.23.06l-8.34.85c-3.12.33-6.23.7-9.35 1-1.55.15-2.07.33-1.64 2.2l.18.72a13 13 0 0 0-5.16 1.23c-.16-1-.3-2-.45-2.91a.84.84 0 0 0-.85-.74 14.78 14.78 0 0 0-1.63 0c-4.77.23-9.53.48-14.3.72l-3.81.16c-.38-.41-.09-.68 0-1 .44-1.29.93-2.56 1.3-3.87a18.5 18.5 0 0 1 3.89-6.88 12.27 12.27 0 0 1 6.1-3.91 23.61 23.61 0 0 1 7.28-.85l3.07.15c.34 0 .68.07 1 .07.77 0 1.24-.23 1.34-.68.14-.63-.25-1-.71-1.35s-.64-.45-1.13-.79a2.38 2.38 0 0 1 1.66 0 24.18 24.18 0 0 1 6.22 2.52c1.13.63 2.23 1.32 3.35 2a7.84 7.84 0 0 0 1.27.62 1 1 0 0 0 1.09-.37.88.88 0 0 0 .16-.95c-.24-.49-.5-1-.78-1.43s-.75-1.13-1.13-1.69a.53.53 0 0 1 .63 0 16.67 16.67 0 0 1 4 2.35 57.22 57.22 0 0 1 8.41 7.76 6.37 6.37 0 0 1 1.64 3.63q.43 3.66.88 7.31a17.25 17.25 0 0 0 .35 2c.19.72.58.92 1.2.63s1.06-.7 1.7-.31a2.26 2.26 0 0 1 .91 1.54 19.61 19.61 0 0 1-.26 9.89 4.52 4.52 0 0 1-1.63 2.31 1.73 1.73 0 0 1-1.5.49c-.71-.22-1.08.12-1.55.6a9.32 9.32 0 0 0-2 3c-1.53 3.72-3.28 7.33-5 11-.38.8-.76 1.6-1.2 2.37a16.26 16.26 0 0 1-6.52 6.58 28.47 28.47 0 0 1-13.47 3.58 22.64 22.64 0 0 1-7.77-1.55 10.49 10.49 0 0 1-4.52-3.4 33.75 33.75 0 0 1-3.71-5.84ZM231.29 207l-.78-.63 8-10 .78.63Zm8.21-6.61.8.6-3 4-.8-.6Zm21.79 4.61-.78-.63 8-10 .78.63Zm8.21-6.61.8.6-3 4-.8-.6Zm-37.42 44.42c1.53-1.13 3.08-2.24 4.62-3.36a.75.75 0 0 1 1.08 0c3.72 3.24 8.23 4 12.94 4.06a27.22 27.22 0 0 0 10.48-2.36 34.86 34.86 0 0 0 6.09-3.41 12.14 12.14 0 0 1 3.48 3.69 3.17 3.17 0 0 1-.71 4.21c-1.5 1.18-2.94 2.43-4.49 3.54-3 2.14-6 4.2-9.06 6.27a33.19 33.19 0 0 1-4.62 2.58 5.32 5.32 0 0 1-4.16.18 14 14 0 0 1-3.6-1.88 104.55 104.55 0 0 1-12-10.41c-.1-.1-.2-.19-.29-.29-1.33-1.36-1.31-1.63.24-2.81Zm-6.85 13.79c.42-.09.6.26.82.48q5.4 5.46 10.77 10.92c.43.43.88.86 1.35 1.25a1.12 1.12 0 0 0 1.5 0c.43-.33.82-.71 1.22-1.08l2.53-2.33a18.71 18.71 0 0 0 3.19 6.91 4.12 4.12 0 0 1 .69 3.4c-.72 3.46-1.19 7-1.8 10.46s-1.27 7-1.93 10.44a13 13 0 0 1-.65 3.41 4.35 4.35 0 0 1-.58-.31c-4.71-3.82-9.43-7.62-14.13-11.46-1.48-1.2-2.87-2.51-4.35-3.71a4.5 4.5 0 0 1-1.83-4.29c.12-1 .09-2 .17-3.06s.19-1.07 1.07-1.15a13.35 13.35 0 0 1 4.67.29c3 .79 6.05 1.58 9.07 2.39a4 4 0 0 0 1.4.23.75.75 0 0 0 .59-.39.71.71 0 0 0-.27-.89 2 2 0 0 0-.73-.34c-3.42-.91-6.82-1.86-10.26-2.68a18.93 18.93 0 0 0-3.46-.21h-1.56c-.1-.08-.17-.11-.19-.16a.49.49 0 0 1 0-.21 8.42 8.42 0 0 1 .08-1c.94-5.58 1.31-11.23 2.45-16.78.03-.06.12-.08.17-.12Zm-14.44 3.77c-.33-.88-.26-1.19.54-1.71 3.38-2.18 6.53-4.69 9.74-7.11 1.19-.9 2.31-1.9 3.46-2.86.4-.12.57 0 .5.44a65.07 65.07 0 0 0-2.05 9.58 5.43 5.43 0 0 0-.1.81 2.6 2.6 0 0 1-1.35 2.14 26.51 26.51 0 0 1-5.73 2.63 2.39 2.39 0 0 1-2.49-.49 9.22 9.22 0 0 1-2.52-3.42ZM290.72 276c1 3.55 1.91 7.1 3 10.61a3.25 3.25 0 0 1-.71 3.56c-1.13 1.19-2.21 2.41-3.36 3.58q-7.32 7.43-14.67 14.83c-2 2-3.89 4-5.89 6-3.83 3.7-7.39 7.64-11 11.57-.63.71-1.18 1.49-1.8 2.28a10.24 10.24 0 0 1-2.22-1.42c-3.14-2.16-6.36-4.21-9.34-6.6a71 71 0 0 1-5.55-4.84l-13.39-13.22a138.76 138.76 0 0 1-14.13-16.68 20.92 20.92 0 0 1-1.49-2.44 5.07 5.07 0 0 1-.4-4.15c.23-.65.41-1.31.67-1.93 1.35-3.27 2.83-6.49 4-9.84a1.84 1.84 0 0 1 1.38-1.31 27.87 27.87 0 0 0 5.29-2.13c.3-.15.56-.42 1-.29a5.83 5.83 0 0 1-.09 2.2c-.42 3.24-.91 6.48-1.28 9.73-.22 2-.27 3.94-.39 5.91a4.92 4.92 0 0 0 1.73 4.19c1.52 1.36 3 2.75 4.61 4 3.27 2.68 6.52 5.39 9.89 7.94a77.81 77.81 0 0 1 16.74 17.53c.66.95 1.36 1.88 2.06 2.8.4.53.66.55 1.15 0 .74-.79 1.48-1.61 2.15-2.46a35.62 35.62 0 0 1 9.92-9 57.82 57.82 0 0 0 5.42-3.66 33.05 33.05 0 0 0 7.78-8.6 12.65 12.65 0 0 0 2.36-6.87 27.37 27.37 0 0 0-.44-5.49 79.51 79.51 0 0 0-2.95-11c-.2-.57-.31-1.17-.46-1.76 0-.05 0-.12.1-.29a53.63 53.63 0 0 0 7.5 0c1 0 1.06 0 1.27.92.52 2.13.97 4.27 1.54 6.33Zm2.7-10.81s0 .12.08.24c-2.5.83-4.94 1.82-7.67 1.7-1.56-.07-3.12.13-4.69 0a2 2 0 0 1-1.79-1.39c-1-2.46-1.77-5-2.5-7.53q-1.35-4.7-2.65-9.4a12.21 12.21 0 0 1-.2-1.21c-.11-.52-.23-1 .61-1a63 63 0 0 1 9.64 8.75c3.01 3.36 5.92 6.78 9.17 9.88Zm18.61-15a13.66 13.66 0 0 1 3.41-.89 26.41 26.41 0 0 1 6.27-.73 12.08 12.08 0 0 1 6.59 1.88l1.59 1c-1.35 2-3.06 3.09-5.5 2.72a8.52 8.52 0 0 0-2.85 0 7.78 7.78 0 0 0-4.77 2.35c-1.27-2.33-3.13-4.14-4.77-6.27Zm10.33 28.85c-1.09-4.14-2.17-8.29-2.94-12.51a16.67 16.67 0 0 0-1.08-3.5 8.27 8.27 0 0 1-.51-4 2.89 2.89 0 0 1 2.17-2.63 8.07 8.07 0 0 1 4.13-.47 8.59 8.59 0 0 0 2.92-.14 5 5 0 0 0 2.49-1.3c.2-.2.38-.4.58-.58 1.92-1.83 3.56-2 5.9-.7a11.58 11.58 0 0 0 2.61 1.13 6 6 0 0 0 4.57-.36c.24-.13.48-.25.73-.36a2.87 2.87 0 0 1 4 1.25 7.19 7.19 0 0 1 1.06 3.68 21.5 21.5 0 0 1-.55 5.06c-.13.67-.3 1.33-.45 2a7 7 0 0 0-.14.8c0 .63 0 1.26.7 1.56a1.5 1.5 0 0 0 1.68-.4 6.79 6.79 0 0 0 1.5-1.92c.69-1.25 1.31-2.54 2-3.8.31-.6.64-1.2 1-1.78.13-.22.52-.11.63.15a4.36 4.36 0 0 1-.26 3.93c-1 1.92-2.08 3.83-3.22 5.67s-2.52 3.89-3.86 5.77a19.39 19.39 0 0 0-4 11.57c0 .94-.12 1-1 1.17l-15.54 2.32c-1 .14-1 .13-1.38-.75a72 72 0 0 1-3.74-10.8Zm118.28-7.28c-.14.4-.6.64-1.44.59a16.45 16.45 0 0 1-1.72-.43 17.36 17.36 0 0 1-4.51-2.32 2 2 0 0 1-1-1.26.7.7 0 0 1 .32-.7 1.05 1.05 0 0 1 .59-.06.77.77 0 0 1 .34.21 13.9 13.9 0 0 0 6 2.87c.13 0 .27 0 .4.08.78.26 1.17.66 1.02 1.08ZM417.92 246a.74.74 0 0 1 .58-.51h.25c5.14.49 9.76 1.89 13.65 5.23a44.93 44.93 0 0 1 5.77 5.77 21 21 0 0 1 1.29 1.84c.35.55.28 1-.1 1.25s-.73.14-1.21-.4c-.27-.31-.52-.64-.77-1a40.92 40.92 0 0 0-6-6.14 21.44 21.44 0 0 0-9.88-4.61c-.8-.16-1.61-.25-2.42-.4a2.21 2.21 0 0 1-.77-.22c-.31-.11-.54-.38-.39-.81Zm-8.36 8.34c.06-.32.33-.4.6-.53.16.08.41.11.52.24a8.33 8.33 0 0 1 .77 1.19 12.42 12.42 0 0 0 3.46 4 48 48 0 0 0 7.88 5 16.57 16.57 0 0 1 1.61.86.69.69 0 0 1 .27.89.66.66 0 0 1-.84.38 8.18 8.18 0 0 1-1.54-.51 42.77 42.77 0 0 1-9.18-6 14.16 14.16 0 0 1-3.38-4.54 1.43 1.43 0 0 1-.17-.94Zm9.09 60.88c-.82.05-1.63.09-2.45.12l-2.25.1a4.57 4.57 0 0 0-3.9 2.19 47.07 47.07 0 0 1-4.93 6 .9.9 0 0 1-1.23.29 13.84 13.84 0 0 0-5.57-1.1 51.37 51.37 0 0 0-8.76.56c-3.59.4-7.09 1.34-10.64 2-3.22.57-6.46 1-9.71 1.37a1.35 1.35 0 0 1-1.58-.87c-2.95-5.45-5.94-10.88-8.91-16.31-.33-.6-.68-1.18-1.14-2l4.2-.7c4.09-.68 8.22-1.23 12.28-2.08a142 142 0 0 0 17.54-4.64 33 33 0 0 0 7-3.24c.28-.18.59-.31.92-.48.36 1.17.66 2.29 1 3.38a12.61 12.61 0 0 0 7.65 8c1.33.53 2.68 1 4 1.51 1.08.41 2.16.82 3.21 1.31a7.94 7.94 0 0 1 4.15 4.26 1.17 1.17 0 0 1-.88.37ZM440 301a.53.53 0 0 1-.36-.13 4 4 0 0 1-1-2.59 3.38 3.38 0 0 1 .43-1.56c.15-.32.65-.56.8-.41s0 .53-.06.73a2.82 2.82 0 0 0 0 2.73 3.06 3.06 0 0 1 .35.73c.04.12-.1.32-.16.5Zm4.77-6.65c-.6 0-.82-.49-1.18-.74a4.12 4.12 0 0 0-5.69.67 4.91 4.91 0 0 0-1.35 3.55 6.27 6.27 0 0 1-.79 3.5 5.53 5.53 0 0 0-.53 4c.5 2.33.86 4.68 1.28 7 .14.79 0 1-.78 1.08q-5.06.64-10.14 1.25c-1.35.16-2.7.28-4.06.41a10.24 10.24 0 0 0-6.3-6.37l-4.76-1.83c-.88-.34-1.79-.65-2.64-1.07a10.66 10.66 0 0 1-5.31-5.7 28.6 28.6 0 0 1-1.29-4.51 103.66 103.66 0 0 1-2.1-11.86 53.07 53.07 0 0 1-.31-9.6c.23-2.5.13-5 .52-7.53a50.75 50.75 0 0 1 2-8.54 1.36 1.36 0 0 1 .73-1c1 4.86 3.81 8.67 7.26 12.07l1.9 1.86a5.31 5.31 0 0 0 .78.64.93.93 0 0 0 1 0 .8.8 0 0 0 .39-.87c-.17-.8-.41-1.58-.61-2.37-.09-.4.05-.52.43-.36a25.82 25.82 0 0 0 9.71 7.41c.12.05.22.15.35.2.74.29 1.05 0 1.05-.89a4.11 4.11 0 0 0-.08-.6c-.15-.4 0-.51.38-.39a.26.26 0 0 1 .14.24.69.69 0 0 0 .4.49c.37.4.76.78 1.1 1.2a18 18 0 0 0 9.49 6.06 2.55 2.55 0 0 1 2.12 2.37c.08.6 0 1.22.09 1.82s-.53 1.48.47 1.73c.82.21.91-.64 1.22-1.13s.51-.8.8-1.18a3.89 3.89 0 0 1 1.24-1 2.06 2.06 0 0 1 2.62.35 4.51 4.51 0 0 1 1.21 2.1 10.08 10.08 0 0 1-.8 7.51Zm38.95 32.36a.86.86 0 0 1-.21 1.1c-.32.27-.79.09-1.16-.45-.84-1.24-1.68-2.47-2.51-3.71a2.65 2.65 0 0 1-.29-.74c-.07-.24.35-.73.73-.71a1.75 1.75 0 0 1 .58.33 24.56 24.56 0 0 1 2.64 3.61 3.54 3.54 0 0 1 .18.54Zm-24-55.26a2.19 2.19 0 0 1-1-.67.64.64 0 0 1 0-.76 2.33 2.33 0 0 1 .5-.38c.26.09.52.16.76.27a15.35 15.35 0 0 1 4.33 2.67c6.63 5.84 11.29 12.85 12.74 21.74a58.3 58.3 0 0 0 2 8.32 42.26 42.26 0 0 0 3.1 7.54c.29.53.51 1.1.75 1.66a.6.6 0 0 1-.24.72.69.69 0 0 1-.94-.06 6.79 6.79 0 0 1-.71-1 29.41 29.41 0 0 1-2.39-5 67.73 67.73 0 0 1-3.25-11.79 50.28 50.28 0 0 0-1.21-4.95 28.15 28.15 0 0 0-4.74-9.2 53.75 53.75 0 0 0-5-5.68 17.77 17.77 0 0 0-4.7-3.46Zm29 73.73a10.82 10.82 0 0 1-1.67-.73 17.1 17.1 0 0 1-3.61-3A53.89 53.89 0 0 1 473 325.68c-1.93-4.44-3.4-9-4.91-13.64-.42-1.29-.87-2.57-1.3-3.87-.15-.45-.27-.94.25-1.26s.87 0 1.15.77c.94 2.55 1.87 5.11 2.76 7.68 1.14 3.28 2.27 6.57 3.65 9.75a53.22 53.22 0 0 0 9.33 14.32 20.67 20.67 0 0 0 5 4.19c.38.22.65.5.6.92s-.53.71-.79.61Z"/><path fill="#030202" d="M110.83 439.83a1.64 1.64 0 0 1 .53-1.08c7.31-9.23 14.51-18.56 22.1-27.58 2.06-2.44 4.27-4.77 6.48-7.08 3.4-3.54 6.69-7.17 9.73-11 2.36-3 4.75-6 7.13-8.95a58 58 0 0 0 3.73-5.11 5.37 5.37 0 0 1 .76-.95c.21-.22.49-.14.74 0a.45.45 0 0 1 .19.53 6.14 6.14 0 0 1-.54 1.09c-1 1.41-1.84 2.87-2.89 4.21q-5.49 7-11.08 13.89c-2.19 2.7-4.65 5.17-7.05 7.67-3 3.14-5.91 6.41-8.68 9.78-6.18 7.53-12.17 15.21-18.2 22.85-.39.5-1.1.89-.9 1.72Z"/><path fill="#040404" d="M355.11 439.83a82.43 82.43 0 0 0-5.31-8.72c-5.25-7.64-10-15.58-14.54-23.67a7.76 7.76 0 0 1-.52-1.09.59.59 0 0 1 .31-.69.51.51 0 0 1 .72.1 8.53 8.53 0 0 1 .67 1c3.5 5.77 7 11.55 10.49 17.29 1.21 2 2.5 3.91 3.83 5.8 2 2.9 3.86 5.94 5.61 9a8.78 8.78 0 0 1 .38.94zm-206.22 0c0-.19-.09-.42 0-.57a5.14 5.14 0 0 1 .55-.85 208.15 208.15 0 0 0 12.88-20.56c2-3.49 4.34-6.75 6.43-10.16a2.62 2.62 0 0 1 .24-.34.74.74 0 0 1 1.05-.2.72.72 0 0 1 0 .94c-.79 1.34-1.57 2.7-2.43 4-2.67 4-5 8.24-7.45 12.42-2.66 4.59-5.49 9.07-8.56 13.4a4 4 0 0 0-1.09 1.92z"/><path fill="#020101" d="M294.87 211.13c-.3 0-.65-.48-.53-.74a8.19 8.19 0 0 1 .75-1.44c3.75-5.44 7.66-10.77 11.63-16 2.63-3.48 5.24-7 7.86-10.45q8.64-11.41 17.16-22.91c5.58-7.56 11.48-14.89 17.22-22.33 2.62-3.4 5.25-6.8 7.76-10.28 2.37-3.26 5.11-6.21 7.62-9.35a2 2 0 0 1 .61-.52.6.6 0 0 1 .74.14.66.66 0 0 1 .19.74 1.24 1.24 0 0 1-.19.36c-.12.16-.26.31-.39.47-5.79 6.45-10.63 13.65-16 20.44-4.1 5.18-8.12 10.43-12.2 15.63-3.83 4.88-7.35 10-11.06 14.95s-7.37 9.64-11 14.5c-5.73 7.71-11.65 15.28-17.14 23.17-.77 1.12-1.59 2.21-2.38 3.32a.71.71 0 0 1-.65.3Z"/><path fill="#020202" d="M110.91 120a1.2 1.2 0 0 1 .39.28 28.57 28.57 0 0 0 3.49 3.72c13.21 13.24 26.82 26.17 40.21 39.25 5.61 5.47 11.13 11 16.65 16.6q7.73 7.76 15.93 15a3.36 3.36 0 0 1 .66.75.65.65 0 0 1 0 .56.56.56 0 0 1-.71.24 2.28 2.28 0 0 1-.69-.43c-1-.82-2-1.62-3-2.49-4.9-4.44-9.72-9-14.35-13.68-11.64-11.88-23.66-23.37-35.62-34.93-7.31-7.05-14.49-14.23-21.71-21.37-.63-.62-1.22-1.29-1.79-2a1.23 1.23 0 0 1-.3-1 .8.8 0 0 1 .84-.5zM87.38 401.75a.64.64 0 0 1-.41-.95 13.67 13.67 0 0 1 1-1c3.83-3.59 7.69-7.16 11.48-10.78 6.23-5.93 12.76-11.5 19.5-16.84q12.51-9.91 24.28-20.69c4.11-3.78 8.41-7.36 12.64-11 2.68-2.32 5.5-4.47 8.38-6.54a6.86 6.86 0 0 1 .85-.55.59.59 0 0 1 .74.16.51.51 0 0 1 0 .73 8.85 8.85 0 0 1-.9.83c-7.9 5.95-15.27 12.55-22.6 19.17-6.44 5.81-13 11.41-19.75 16.87-5.66 4.6-11.46 9-16.8 14-5.6 5.2-11.16 10.43-16.74 15.64l-.91.82a.92.92 0 0 1-.76.13zm99.91-179.35c-.08.27-.3.52-.56.49a2.27 2.27 0 0 1-.92-.39c-1.47-1-2.95-2-4.37-3-2.46-1.82-5-3.59-7.55-5.24-15.61-10-30.89-20.41-46-31.16-5.77-4.11-11.62-8.09-17.53-12a13.86 13.86 0 0 1-1.47-1.08.75.75 0 0 1-.14-.94c.13-.26.35-.46.64-.35a4.87 4.87 0 0 1 .86.53c9.25 6 18.18 12.47 27.22 18.79 12.38 8.67 24.87 17.18 37.65 25.25 2.42 1.53 4.75 3.18 7 4.93 1.51 1.17 3.09 2.24 4.63 3.35a.92.92 0 0 1 .54.82z"/><path fill="#010101" d="M159.13 87.63c-.4 0-.81-.13-1.21-.16a8 8 0 0 0-7.21 3c-.35.41-.63.89-.94 1.33s-.57.64-1 .49a1 1 0 0 1-.62-1c0-.34-.06-.68-.11-1a30.45 30.45 0 0 0-1.21-5.16 5.11 5.11 0 0 0-2.28-3.26.73.73 0 0 1-.4-.86.89.89 0 0 1 .74-.62c1.34-.24 2.69-.42 4-.71a23.51 23.51 0 0 0 2.94-.86 8.76 8.76 0 0 0 3.29-2c.38-.38.76-.92 1.37-.66s.55 1 .56 1.61 0 1.23 0 1.84a11.64 11.64 0 0 0 .54 3.42 4.88 4.88 0 0 0 2 3.2.71.71 0 0 1 .33.87c-.09.49-.45.51-.79.53zm-105.74 319a3.23 3.23 0 0 1-.56-.3c-.49-.36-.94-.78-1.44-1.13a8.64 8.64 0 0 0-5.91-1.85 7.09 7.09 0 0 1-1.22 0 .62.62 0 0 1-.57-.5.7.7 0 0 1 .2-.75c.44-.32.9-.6 1.35-.91A11 11 0 0 0 49.9 394a7.14 7.14 0 0 0 .07-2.44.76.76 0 0 1 .52-.79 1.21 1.21 0 0 1 1.33.12 5.58 5.58 0 0 1 .32.52 8.89 8.89 0 0 0 8.53 4.17l.81-.09c.73 0 1.11.15 1.15.56.06.6-.38.81-.82 1l-.92.44a13.94 13.94 0 0 0-4.69 3.87 8 8 0 0 0-1.64 3.48 10.69 10.69 0 0 1-.34 1.38c-.09.26-.34.46-.83.41z"/><path fill="#030202" d="M69 376.76c-.27 0-.53-.5-.44-.79a1.5 1.5 0 0 1 .63-.77c1-.66 1.89-1.34 2.86-2 6.28-4.08 12.6-8.09 19.2-11.66a176.2 176.2 0 0 0 17.58-11.17c2.94-2.09 5.92-4.13 8.91-6.15a113 113 0 0 1 17-9.31c.18-.08.36-.19.55-.26a1 1 0 0 1 1.14.15c.25.25-.05.78-.62 1.08-1.09.56-2.19 1.1-3.29 1.64a125.31 125.31 0 0 0-16.89 9.92c-3.35 2.34-6.72 4.66-10.07 7a139.55 139.55 0 0 1-12.48 7.76q-11.73 6.47-22.79 14c-.37.31-.73.68-1.29.56Z"/><path fill="#040202" d="M88.41 229.49c.19 0 .6.07 1 .15 4.8 1 9.59 2 14.39 2.94q13.22 2.61 26.45 5.14c6.55 1.24 13.12 2.39 19.68 3.56.74.13 1.49.16 2.23.28a.61.61 0 0 1 .51.56.67.67 0 0 1-.51.77 2.86 2.86 0 0 1-1 0c-8.79-1.47-17.58-2.94-26.32-4.68l-35.64-7.07a9.27 9.27 0 0 1-1.18-.3c-.51-.16-.74-.52-.62-.88s.43-.48 1.01-.47Z"/><path fill="#030303" d="M231.52 146.22c0 .19 0 .36-.09.45a.92.92 0 0 1-.46.38.66.66 0 0 1-.52-.2 1 1 0 0 1-.25-.54c-.51-2.82-1.55-5.5-2.33-8.25-1.55-5.51-2.64-11.13-3.67-16.75-1.07-5.83-2.14-11.66-3.1-17.5-.84-5.11-1.53-10.24-2.27-15.36-.16-1.08-.28-2.17-.38-3.25a4.54 4.54 0 0 1 .05-1.2.65.65 0 0 1 .72-.56.6.6 0 0 1 .57.49 4.14 4.14 0 0 1 .09.6c1.2 10.91 3.08 21.72 5.06 32.5 1 5.56 2 11.13 3.34 16.62.67 2.71 1.47 5.38 2.2 8.08.34 1.25.65 2.5 1 3.76.02.24.01.51.04.73Z"/><path fill="#010101" d="M50.36 362.87a1 1 0 0 1-.56 1 10.41 10.41 0 0 0-2.37 2.22 5.33 5.33 0 0 0-1.43 3.28 6 6 0 0 1-.07.61c-.07.34-.16.67-.57.74a.87.87 0 0 1-.88-.35c-.18-.21-.37-.41-.56-.6a6.45 6.45 0 0 0-4.53-2h-2.65a4.14 4.14 0 0 1-1-.08.74.74 0 0 1-.55-.54.66.66 0 0 1 .24-.73 9.11 9.11 0 0 0 2.85-2.57 11.59 11.59 0 0 0 2.26-5.38c0-.2 0-.4.07-.6s.21-.66.59-.74a.78.78 0 0 1 .86.39c.18.29.32.6.51.88a7.19 7.19 0 0 0 5.27 3.45c.67.07 1.34.18 2 .31a.7.7 0 0 1 .52.71zM96 197.38v.42a.83.83 0 0 1-1.23.61 7.89 7.89 0 0 1-1-1 12.47 12.47 0 0 0-2.46-2.13 7.62 7.62 0 0 0-3.42-1.28 1.48 1.48 0 0 1-.74-.27c-.27-.2-.54-.55-.26-.86 1.92-2.14 2-4.79 2.19-7.43a2.88 2.88 0 0 1 0-.41.74.74 0 0 1 1.22-.5 11.43 11.43 0 0 1 .94.78 14.58 14.58 0 0 0 2.68 1.86 7 7 0 0 0 4.64 1.14.69.69 0 0 1 .83.44.84.84 0 0 1-.26.92 1.91 1.91 0 0 1-.32.24c-2.53 1.65-3.17 4.1-2.91 6.92.04.17.1.36.1.55zM359.28 82.64c.7-.06 1 0 1.28.29a4.63 4.63 0 0 1 .71 1 7.33 7.33 0 0 0 4 3.29l.57.22c.83.38 1 1 .32 1.56a13.52 13.52 0 0 0-3.89 6.12c-.07.19-.14.38-.23.57a.81.81 0 0 1-1.34.25 6.24 6.24 0 0 1-.5-.65 8.29 8.29 0 0 0-5-3.29 6.61 6.61 0 0 1-1.17-.36.86.86 0 0 1-.18-1.6c2.22-1.35 3.35-3.51 4.43-5.72.21-.43.42-.86.66-1.27.16-.25.38-.42.34-.41z"/><path fill="#040202" d="M445.63 160.82a.76.76 0 0 1-.34.71c-.35.2-.73.37-1.09.55q-20 9.91-39.49 20.85c-2.55 1.43-5.12 2.83-7.68 4.23a9.26 9.26 0 0 1-1.1.53.54.54 0 0 1-.7-.24.56.56 0 0 1 0-.75 6.29 6.29 0 0 1 1-.68q13.28-7.61 26.79-14.78c6.6-3.51 13.28-6.86 19.95-10.23a4.92 4.92 0 0 1 1.89-.74.69.69 0 0 1 .77.55Z"/><path fill="#010101" d="M106.09 255.72a3.32 3.32 0 0 1 .58.2c.67.34 1.32.72 2 1.06a8.51 8.51 0 0 0 4.92 1 4.08 4.08 0 0 1 .61 0 .81.81 0 0 1 .8 1.1 9.61 9.61 0 0 1-.45.91 7.5 7.5 0 0 0-.2 6.88c.21.46.69.92.21 1.49-.32.38-.68.37-1.6-.32a14.42 14.42 0 0 0-6.66-2.91 2.76 2.76 0 0 1-.4-.06 1.34 1.34 0 0 1-1-2 10.57 10.57 0 0 0 .61-5c0-.47-.2-.93-.26-1.4a.92.92 0 0 1 .84-.95Z"/><path fill="#030303" d="M496.37 416.22c-.07.13-.13.35-.28.45a.63.63 0 0 1-.56.08 2.37 2.37 0 0 1-.77-.63c-2.45-3.22-5.5-5.85-8.39-8.64-8.78-8.45-17.67-16.79-26-25.73a7.7 7.7 0 0 1-.56-.59c-.22-.29-.33-.61 0-.9a.67.67 0 0 1 .92 0 12.06 12.06 0 0 1 1.05 1c1.83 1.83 3.66 3.66 5.47 5.51 3.65 3.76 7.36 7.46 11.2 11 4.38 4.09 8.66 8.28 13 12.44a43.7 43.7 0 0 1 4.37 4.85 1.71 1.71 0 0 1 .55 1.16Z"/><path fill="#020101" d="M296 119.74c-.6.09-1.06-.44-1-.78a3.39 3.39 0 0 1 .24-.55 7.29 7.29 0 0 0-.16-7.55.68.68 0 0 1 .05-.92.76.76 0 0 1 .93-.17 8.07 8.07 0 0 0 2.52.75 6.55 6.55 0 0 0 4.3-.9c.34-.22.7-.41 1-.63a.6.6 0 0 1 .75.06.72.72 0 0 1 .25.9c-.15.31-.3.61-.44.92a6.2 6.2 0 0 0 .09 5.87 6.42 6.42 0 0 1 .48 1.11.67.67 0 0 1-.68.8 3.64 3.64 0 0 1-1-.21 7 7 0 0 0-6.43.71Z"/><path fill="#040303" d="M409.16 145.88a.83.83 0 0 1-.23.75c-.56.5-1.13 1-1.72 1.44-5.4 4.05-10.78 8.11-16.21 12.12-6.36 4.69-12.37 9.83-18.47 14.85-.48.39-.95.78-1.43 1.15a1 1 0 0 1-.56.22.71.71 0 0 1-.53-.23.61.61 0 0 1-.06-.55 7.19 7.19 0 0 1 1-1c5.62-4.86 11.29-9.66 17.23-14.12s11.78-8.81 17.68-13.22c.81-.61 1.61-1.26 2.43-1.86a.64.64 0 0 1 .87.45Z"/><path fill="#010101" d="M196.58 226a2.26 2.26 0 0 1 .66.29c.54.51 1 1.07 1.57 1.6a7.76 7.76 0 0 0 3.76 2.31c.91.21 1.09.74.65 1.49-.2.35-.47.66-.68 1a6.93 6.93 0 0 0-1 5.26 4 4 0 0 1 .06 1.2.65.65 0 0 1-1 .36c-.36-.31-.66-.68-1-1-.6-.55-1.19-1.11-1.84-1.6a4.75 4.75 0 0 0-3-1c-1.27 0-1.66-.76-1-1.85.24-.41.53-.79.8-1.18a7.35 7.35 0 0 0 1.5-6.11c-.15-.32.13-.55.52-.77Z"/><path fill="#040303" d="M205.21 177.06a2.8 2.8 0 0 1-.32.29.42.42 0 0 1-.54-.12 4.34 4.34 0 0 1-.61-.8c-6.91-11.64-13.2-23.61-19-35.86-.26-.56-.51-1.12-.74-1.68a2 2 0 0 1-.17-.79.76.76 0 0 1 .61-.72.66.66 0 0 1 .84.38c2.8 7.17 6.56 13.88 10.09 20.69 2.69 5.19 5.63 10.25 8.46 15.37l1.27 2.33a.88.88 0 0 1 .11.91Z"/><path fill="#010101" d="M404 125.58a1.69 1.69 0 0 1-.31.56 7.08 7.08 0 0 0-2 5v.41c-.2 1.5-.69 1.74-2 .85a7.34 7.34 0 0 0-5.24-1.23 8.43 8.43 0 0 1-1 .1.79.79 0 0 1-.69-1.16 5.31 5.31 0 0 1 .48-.66 10.41 10.41 0 0 0 2.65-6.07 2.12 2.12 0 0 1 .17-.58.76.76 0 0 1 .88-.31c.06 0 .14 0 .17.1 1.51 2 3.61 2.26 5.86 2.13a1.53 1.53 0 0 1 .61.06c.21.12.42.33.42.8zM108.09 413.31a7.66 7.66 0 0 0-3.37.37c-.79.22-1.55.52-2.34.73s-1.17-.36-1-1.09a5.66 5.66 0 0 1 .2-.58 6.3 6.3 0 0 0-.23-5.15c-.17-.37-.38-.73-.53-1.11a.75.75 0 0 1 .76-1.08 2.05 2.05 0 0 1 .61.1 8.57 8.57 0 0 0 5.61-.17c.46-.14.91-.42 1.33 0a1.21 1.21 0 0 1 .19 1.49 6.34 6.34 0 0 0 .09 5.35 1.08 1.08 0 0 1 .08.19c.23.73-.15 1.15-1 1.07a1.47 1.47 0 0 1-.4-.12z"/><path fill="#050303" d="M432.63 215.25c-5.31.2-10.61 0-15.92-.11a3.12 3.12 0 0 1-1.78-.27c-.16-.11-.34-.21-.35-.46a.61.61 0 0 1 .44-.61 6.75 6.75 0 0 1 1.42 0c6.67.16 13.33.24 20 0 5.64-.19 11.29-.35 16.91-1 .6-.06 1.22-.09 1.83-.12s1.1.17 1.17.54-.29.77-1.11.91a12.13 12.13 0 0 1-1.21.16c-6.11.47-12.21 1-18.34.95Z"/><path fill="#070505" d="M166.17 231.14c0 .38-.21.63-.49.65a3 3 0 0 1-1-.13q-11.7-2.79-23.2-6.24a19.48 19.48 0 0 1-2.1-.76 2.59 2.59 0 0 1-.83-.56.56.56 0 0 1-.11-.74.67.67 0 0 1 .67-.36 1.83 1.83 0 0 1 .39.09c6.31 2.34 12.88 3.79 19.34 5.6 2.16.61 4.33 1.16 6.49 1.75.41.11.79.29.84.7zm175.28-15.02c-.11.1-.26.33-.4.33a2.24 2.24 0 0 0-1.85 1.05c-3.73 4.34-7.76 8.41-11.72 12.55a34 34 0 0 0-3.5 4 .49.49 0 0 1-.72.15c-.3-.22-.5-.52-.29-.86a10.33 10.33 0 0 1 1.14-1.68c1.16-1.34 2.36-2.65 3.57-3.94 3.55-3.77 7.19-7.46 10.59-11.38a10.84 10.84 0 0 1 1.5-1.37.88.88 0 0 1 1.13.08 1.14 1.14 0 0 1 .55 1.07z"/><path fill="#897e7e" d="M350.58 264.25c0 .45-.33 1-.58.89-.53-.23-.23-.76 0-1.17 0-.06.1-.09.15-.13Z"/><path fill="#f38704" d="M322 307.16c-2.73 0-4.13-1.11-4.72-3.56a5.76 5.76 0 0 1-.18-2 22.86 22.86 0 0 1 1.32-5.75 4 4 0 0 1 3.65-2.79l.61-.06c3.74-.28 7.42-1 11.12-1.49 3.36-.48 6.73-1 10.06-1.65s6 .75 6.84 4.42c.05.2.12.39.17.59.44 2.09 0 3-1.85 4a26.33 26.33 0 0 1-3.38 1.43q-8.64 2.86-17.42 5.7a25.93 25.93 0 0 1-6.22 1.16zm-73.1-30.64c1.78.62 1.78.62 3.6-.5a12.48 12.48 0 0 1 .61 3.39c.33 3.19.88 6.34 1.34 9.5.41 2.9.84 5.8 1.14 8.71.33 3.19 1 6.32 1.5 9.48.27 1.75.65 3.48 1 5.21a2.05 2.05 0 0 1-.38 1.92c-.48.56-.91 1.16-1.32 1.69-.77-.14-1-.7-1.28-1.12a112.25 112.25 0 0 0-7.79-9.74l-.13-.15c-.79-1-1.91-1.74-2.58-2.87.18-1.41.32-2.83.57-4.24.62-3.48 1.32-6.95 1.92-10.44s1.09-6.86 1.64-10.28c.03-.19.11-.37.16-.56zm22.97-29.99c.4 1.57.71 2.88 1.06 4.19.45 1.71.89 3.42 1.41 5.11a3.51 3.51 0 0 1-.19 2.75 42.26 42.26 0 0 1-3.26 5.65l-2.89 4.19c-.39.56-.62.63-1.19.35a9.58 9.58 0 0 1-.89-.49c-2.27-1.24-4.53-2.5-6.81-3.72a2.83 2.83 0 0 1-1.52-1.54 19.49 19.49 0 0 0-2.38-3.55c-.44-.67-.41-.86.3-1.29 3-1.8 5.81-3.8 8.66-5.79q3.44-2.4 6.66-5.06c.24-.21.51-.4 1.04-.8zm-42.68-1.05a1.64 1.64 0 0 1 .44.27 63.76 63.76 0 0 0 5.65 5.62 81.3 81.3 0 0 0 9.26 7.39c.65.45.73.65.46 1.35a15 15 0 0 1-2.89 4.43c-.58.67-1.24 1.27-1.85 1.92-1.28 1.38-1.1 1.59-2.6.06-3.49-3.54-7-7-10.57-10.54-.34-.34-.68-.67-1-1a1.29 1.29 0 0 1-.44-1.45c.62-2.16 1.17-4.34 1.78-6.5a2.28 2.28 0 0 1 1.76-1.55z"/><path fill="#f28704" d="M67.35 264.81a2.39 2.39 0 0 1-.35.54c-.49.47-1 .94-1.51 1.37-2.7 2.19-5.4 4.38-8 6.71a61.9 61.9 0 0 1-7.22 5.36c-1 .66-1.35.65-2.16-.15a15.72 15.72 0 0 1-3.11-4.73 1.53 1.53 0 0 1 .33-1.87c.29-.29.58-.58.88-.86a.84.84 0 0 1 1.1-.17 7.86 7.86 0 0 0 .94.41 3.48 3.48 0 0 0 3.13-.39c1.28-.78 2.55-1.58 3.82-2.37 2.67-1.64 5.34-3.29 8-4.92.51-.32 1-.87 1.63-.74a4.44 4.44 0 0 1 2.28 1.29 1.81 1.81 0 0 1 .24.52zm347.02 52.33c.65 0 1.37-.09 2.08-.09a73.11 73.11 0 0 0 8.75-.64c2.77-.3 5.55-.59 8.31-1 1.49-.19 3-.48 4.43-.75 2.83-.52 3.35-.23 4.37 2.55.45 1.21.91 2.41 1.35 3.63a.47.47 0 0 1-.45.7 17.39 17.39 0 0 1-4.08-.12c-3.64-.53-7.3-.77-10.95-1.15-3.05-.33-6.1-.56-9.12-1.1a19.15 19.15 0 0 1-4.44-1.48c-.17-.02-.36-.14-.25-.55z"/><path fill="#f28604" d="M311.71 382.43c-3.87-.48-7.72-.86-11.41-2.21-2.61-1-5.31-1.69-8-2.54a22.47 22.47 0 0 1-2.48-.93c-.6-.26-.74-.67-.62-1.34.39-2.19.81-2.46 3-1.72a108.54 108.54 0 0 0 13 3.3c1.73.35 3.5.5 5.25.73a1.31 1.31 0 0 1 1.34 1.25c.1.88.37 1.73.54 2.59.2.66-.02.91-.62.87zM214.29 376c0 1.08-.2 1.4-1.12 1.55-1.88.3-3.77.58-5.66.79-4.81.54-9.58 1.38-14.36 2.09A70.64 70.64 0 0 0 186 382c-.53.14-.74-.07-.69-.62a1.49 1.49 0 0 1 0-.21c.32-2.43.33-2.51 2.75-3 2.67-.5 5.37-.9 8.06-1.32 3.16-.48 6.33-.95 9.5-1.38 2.56-.36 5.13-.66 7.7-1a.71.71 0 0 1 .88.63c.05.38.07.72.09.9z"/><path fill="#f18604" d="M450 275.94a10.5 10.5 0 0 1 .19-1.17 59.13 59.13 0 0 0 1.62-7.56 6.22 6.22 0 0 1 .31-1.18.65.65 0 0 1 .81-.44 8.07 8.07 0 0 1 1.17.31c1.36.49 1.55.84 1.41 2.27a59.21 59.21 0 0 1-1.26 8c-.05.19-.06.4-.12.6-.34 1.35-.6 1.5-2 1.21-.34-.06-.67-.14-1-.23-1.02-.25-1.2-.51-1.13-1.81Z"/><path fill="#682b2b" d="M407 323.79c.4.35.92.09 1.35.26a1.28 1.28 0 0 1-1.21.35c-.3-.08-.54-.3-.14-.61Z"/><path fill="#060404" d="M212.29 326.43a29.42 29.42 0 0 1 8 1.92 40 40 0 0 1 4.24 2c3.16 1.74 6.28 3.55 9.4 5.35a3 3 0 0 1 .76.66.57.57 0 0 1 0 .75c-.17.2-.42.41-.7.27-.8-.37-1.59-.77-2.36-1.19-2.75-1.51-5.47-3.05-8.22-4.54a26.09 26.09 0 0 0-5.82-2.44 25.65 25.65 0 0 0-6.2-1.12c-.79 0-1.2-.29-1.28-.74s.43-.88 1.31-.92Z"/><path fill="#080606" d="M233.64 326c.28.07.82.17 1.34.32a22.89 22.89 0 0 1 6.86 3.52c1.82 1.31 3.51 2.8 5.45 4a1.09 1.09 0 0 1 .41.44.93.93 0 0 1 .07.57.59.59 0 0 1-.61.43 2.23 2.23 0 0 1-.95-.32c-1-.66-2.05-1.34-3.05-2-1.41-1-2.76-2-4.2-2.89a13.88 13.88 0 0 0-6.24-2.34 1.27 1.27 0 0 1-.55-.23.65.65 0 0 1-.28-.71 1 1 0 0 1 .32-.49 2.18 2.18 0 0 1 1.43-.3Z"/><path fill="#050303" d="M267.92 355c-.31 0-.74-.58-.57-.89a4.27 4.27 0 0 1 .58-.83 19.71 19.71 0 0 1 4.05-3.4 42.21 42.21 0 0 1 7.45-3.74c2.53-1 5-2.08 7.49-3.17s5.14-2.13 7.72-3.18a3.06 3.06 0 0 1 .77-.22.68.68 0 0 1 .81.45.79.79 0 0 1-.26.91 2.51 2.51 0 0 1-.52.32l-.93.41q-7.41 3.09-14.83 6.2c-1.31.56-2.6 1.17-3.88 1.8a23.36 23.36 0 0 0-6.83 4.73 1.4 1.4 0 0 1-1.05.61Z"/><path fill="#080606" d="M257.3 334.59a5.35 5.35 0 0 1-1.06-.17.63.63 0 0 1-.42-.63.72.72 0 0 1 .45-.63 3.61 3.61 0 0 1 1-.16c2.57-.24 5.15-.49 7.73-.71a36.8 36.8 0 0 0 8-1.61 3.78 3.78 0 0 1 1.2-.2.65.65 0 0 1 .61.45.73.73 0 0 1-.18.75 2.87 2.87 0 0 1-1.44.73 32.76 32.76 0 0 1-6.57 1.42c-3.07.3-6.13.5-9.32.76Z"/><path fill="#110606" d="M256.43 383.14h-4.26c-.4 0-.82-.13-.92-.61s.31-.83.9-.88a83.66 83.66 0 0 1 8.52-.31 1.56 1.56 0 0 1 1 .27.82.82 0 0 1 .31.71.62.62 0 0 1-.45.6 6 6 0 0 1-1.2.13h-3.86Z"/><path fill="#120e0e" d="M256 338.61a1.75 1.75 0 0 1 .51-1.41 3.72 3.72 0 0 1 1.63-.8.64.64 0 0 1 .68.34.59.59 0 0 1 0 .75l-.13.16c-.29.36-1 .37-1 .92a2.31 2.31 0 0 0 .88 1.56 4.27 4.27 0 0 1 .44.41.69.69 0 0 1 .16.75.83.83 0 0 1-.84.45 1 1 0 0 1-.58-.17 4.57 4.57 0 0 1-1.75-2.96Z"/><path fill="#030303" d="M408.75 381.34a1.62 1.62 0 0 1 1 .31c1 .62 2 1.18 2.93 1.86a111.26 111.26 0 0 1 22.75 21.87 42.72 42.72 0 0 1 3.56 5.47 6.84 6.84 0 0 1 .57 1.3.58.58 0 0 1-.34.66.66.66 0 0 1-.77-.05 2.59 2.59 0 0 1-.49-.64A75.17 75.17 0 0 0 426.89 398a130.65 130.65 0 0 0-11.5-10.43 68 68 0 0 0-5.63-4.05 4.36 4.36 0 0 1-1.41-1.15.66.66 0 0 1 0-.77 1.47 1.47 0 0 1 .4-.26Z"/><path fill="#060404" d="M437.3 401a.73.73 0 0 1-.83.83 1.51 1.51 0 0 1-.76-.65c-3.44-5-8.08-8.81-12.79-12.54-.85-.68-1.74-1.3-2.61-2-.38-.29-.75-.59-1.1-.91a.71.71 0 0 1 .75-1.19 4.11 4.11 0 0 1 .9.48A76.91 76.91 0 0 1 434 396.36a26.73 26.73 0 0 1 2.94 3.92 5.2 5.2 0 0 1 .36.72Z"/><path fill="#040303" d="M371.49 430.91a.74.74 0 0 1-.42.55.55.55 0 0 1-.71-.21 7.46 7.46 0 0 1-.61-1.06 50.56 50.56 0 0 0-4-6.44 25 25 0 0 1-1.52-2.18c-4-6.69-8.68-12.88-12.89-19.4a361.3 361.3 0 0 1-6.46-10.43c-1-1.63-1.8-3.36-2.69-5.05a.61.61 0 0 1-.09-.18.62.62 0 0 1 .21-.72.61.61 0 0 1 .89.14 5.26 5.26 0 0 1 .68 1c1.13 2.34 2.55 4.5 3.87 6.73 3.4 5.67 7.06 11.17 10.9 16.56 1 1.44 2 2.9 3 4.41 2 3.3 4.12 6.59 6.39 9.74a39.88 39.88 0 0 1 3.1 5.28 2.17 2.17 0 0 1 .35 1.26Z"/><path fill="#060505" d="M364.46 352.43a.88.88 0 0 1-.55.95.72.72 0 0 1-.86-.37 2.49 2.49 0 0 1-.33-1 35.8 35.8 0 0 0-3.13-9.23c-.78-1.73-1.68-3.42-2.57-5.1a9.94 9.94 0 0 0-1.84-2.67.74.74 0 0 1 0-.95.85.85 0 0 1 1.11-.13 6.67 6.67 0 0 1 1.38 1.75 53.91 53.91 0 0 1 6.09 13.3c.29 1 .45 2 .65 3a1.69 1.69 0 0 1 .05.45Z"/><path fill="#090707" d="M417 341.62c.11 0 .36 0 .49.13a8.66 8.66 0 0 1 .81.9c2.49 3 5.18 5.77 8.92 7.23a2.21 2.21 0 0 1 .68.44.65.65 0 0 1 .2.73.61.61 0 0 1-.62.43 3 3 0 0 1-1-.23 18.5 18.5 0 0 1-6-3.75 36 36 0 0 1-3.48-3.72 2.53 2.53 0 0 1-.69-1.44.73.73 0 0 1 .69-.72Z"/><path fill="#0a0808" d="M357.64 275.35a3.41 3.41 0 0 1 .73.31 25.07 25.07 0 0 1 8 9.14 3.27 3.27 0 0 1 .24 1 .62.62 0 0 1-.36.67.72.72 0 0 1-.92-.2 4 4 0 0 1-.43-.69 27.84 27.84 0 0 0-7.18-8.54 3.38 3.38 0 0 1-.59-.54.57.57 0 0 1 0-.75 3.52 3.52 0 0 1 .51-.4Z"/><path fill="#040303" d="M179.45 298c-.83-.17-2-.35-3.09-.65a27.4 27.4 0 0 1-9.16-4.35 113.46 113.46 0 0 1-13.07-11.71 4.06 4.06 0 0 1-.72-1 .61.61 0 0 1 .14-.74.62.62 0 0 1 .75-.12 8.44 8.44 0 0 1 .92.78c2.55 2.36 5.07 4.76 7.66 7.06 1.58 1.41 3.26 2.68 4.91 4a25.46 25.46 0 0 0 11.09 4.89 7.9 7.9 0 0 1 1.19.27.84.84 0 0 1 .63.93c-.05.36-.47.64-1.25.64Z"/><path fill="#050303" d="M142.51 284.76a1.16 1.16 0 0 1 .47.09 3.46 3.46 0 0 1 .65.49 86.82 86.82 0 0 0 11.24 8.1 67.44 67.44 0 0 0 10.61 5.15c.5.21 1 .39 1.51.61a.81.81 0 0 1 .46 1 .87.87 0 0 1-1 .5 3.52 3.52 0 0 1-.78-.24 73.85 73.85 0 0 1-22.74-13.69 7.9 7.9 0 0 1-1-1 .67.67 0 0 1 .58-1.01Z"/><path fill="#070606" d="M159.34 275.25a1.29 1.29 0 0 1 .57.21 16.2 16.2 0 0 1 1.41 1.46 32.9 32.9 0 0 0 7 5.92 20.47 20.47 0 0 0 4.73 2.35 6.51 6.51 0 0 1 1.12.48.77.77 0 0 1 .39.86 1 1 0 0 1-.95.62 5.58 5.58 0 0 1-.61-.15 19.3 19.3 0 0 1-3.75-1.57 33.72 33.72 0 0 1-10.25-8.86 1.85 1.85 0 0 1-.28-.73c-.1-.23.19-.54.62-.59Z"/><path fill="#070505" d="M256.55 223.79a72.07 72.07 0 0 0-10 .48 4.59 4.59 0 0 0-3.62 1.57.63.63 0 0 1-.9.18.85.85 0 0 1-.23-1.09 4.47 4.47 0 0 1 2.95-2 38.69 38.69 0 0 1 5.45-.7 108.59 108.59 0 0 1 11.41-.13 3.63 3.63 0 0 1 1.2.18.76.76 0 0 1 .48.82.74.74 0 0 1-.66.66 8.68 8.68 0 0 1-1 0Z"/><path fill="#0b0a0a" d="M253.43 216.47c.48 0 1.22-.08 2-.08a.63.63 0 0 1 .69.6.79.79 0 0 1-.48.81 2 2 0 0 1-.57.21 13.62 13.62 0 0 1-5 .11 8.4 8.4 0 0 1-1.55-.47 2.48 2.48 0 0 1-1.66-3.08 15.36 15.36 0 0 0 .7-3.57c0-.12.26-.34.41-.36a1.09 1.09 0 0 1 .75.16 1.35 1.35 0 0 1 .36 1.32c-.17.79-.38 1.58-.55 2.37-.23 1.06 0 1.5 1.09 1.79a9.92 9.92 0 0 0 3.81.19Z"/><path fill="#090606" d="M253.49 229.27a15.84 15.84 0 0 1-6.24-2 2.28 2.28 0 0 1-1-1 .72.72 0 0 1 0-.76.66.66 0 0 1 .72-.24 1.29 1.29 0 0 1 .54.26 12.12 12.12 0 0 0 3.92 1.61 6.29 6.29 0 0 0 5.28-.66c.52-.32 1-.69 1.53-1a.72.72 0 0 1 .93.1.86.86 0 0 1 .07 1.11 1 1 0 0 1-.12.17 9.22 9.22 0 0 1-5.63 2.41Z"/><path fill="#0c0909" d="M250.93 232h-1.63a.54.54 0 0 1-.56-.48.69.69 0 0 1 .23-.73 2 2 0 0 1 .93-.36c2.57-.12 5.14-.42 7.7-.74a1.34 1.34 0 0 1 .59.08.79.79 0 0 1 .6.73.64.64 0 0 1-.41.64 5.41 5.41 0 0 1-1.37.35c-1.89.19-3.79.33-6.08.51Z"/><path fill="#050303" d="M419.38 298.78c-.31-.47-.83-.38-1.27-.43-3.64-.36-6.73-2-9.7-4a1.31 1.31 0 0 1-.31-.25.67.67 0 0 1-.09-.76.73.73 0 0 1 .66-.39c.53 0 .88.34 1.28.58a22.82 22.82 0 0 0 6.52 2.84 26.39 26.39 0 0 0 4.25.52h1.22a1 1 0 0 1 .71 1.39 3.55 3.55 0 0 1-1.09 1.19 21.86 21.86 0 0 1-5.46 3.15c-.88.36-1.8.65-2.7.93a2.8 2.8 0 0 1-2.7-.48c-.8-.64-1.61-1.26-2.38-1.92a.71.71 0 0 1-.15-.93.8.8 0 0 1 1.06-.33c.78.54 1.55 1.1 2.3 1.69a1.57 1.57 0 0 0 1.53.31 22.14 22.14 0 0 0 6.09-2.8 1.2 1.2 0 0 0 .23-.31Z"/><path fill="#0c0a0a" d="M416.88 290.63a.73.73 0 0 1-.66.66c-1.31.12-4.17-1.61-4.74-2.8a1.79 1.79 0 0 1 .08-1.75 16.24 16.24 0 0 1 2.55-2.88c.22-.22.52-.11.75.05a.6.6 0 0 1 .28.7 3.74 3.74 0 0 1-1.16 1.64c-1.37 1.33-1.41 1.81.58 2.7.62.28 1.24.54 1.85.85a.83.83 0 0 1 .47.83Z"/><path fill="#100a0a" d="M405.57 274.86a5.89 5.89 0 0 1 4.54 2.34 1.22 1.22 0 0 1 .25.54.79.79 0 0 1-.29.9.74.74 0 0 1-.93-.06 9.6 9.6 0 0 1-.69-.74 4.19 4.19 0 0 0-3.88-1.31c-.33.05-.66.14-1 .17a.63.63 0 0 1-.76-.5.76.76 0 0 1 .4-.84 4.31 4.31 0 0 1 2.36-.5Z"/><path fill="#120c0c" d="M426.75 281.89a5.23 5.23 0 0 1 4.44 2.48.84.84 0 0 1 .07.19.79.79 0 0 1-.18.92.78.78 0 0 1-.94 0 2.13 2.13 0 0 1-.57-.55 3.47 3.47 0 0 0-3.76-1.34c-1 .19-1.42 0-1.48-.48s.27-.76 1.09-1c.51-.11 1.05-.11 1.33-.22Z"/><path fill="#140f0f" d="M352.65 192.29a2.64 2.64 0 0 1 .6.12c1.25.48 2.5 1 3.75 1.48a.68.68 0 0 1 .32.23 1.1 1.1 0 0 1 .19.54.53.53 0 0 1-.49.54 2.35 2.35 0 0 1-1 0c-1.33-.45-2.66-.92-4-1.41a.76.76 0 0 1-.48-.81c.06-.36.53-.7 1.11-.69Z"/><path fill="#120d0d" d="M350.77 186.74c-.06.43-.2.72-.59.79a.58.58 0 0 1-.69-.28 4.94 4.94 0 0 0-2.32-2.41 1.93 1.93 0 0 1-.45-.4.76.76 0 0 1-.07-.93.63.63 0 0 1 .71-.27 5.43 5.43 0 0 1 3.33 3 2.2 2.2 0 0 1 .08.5Z"/><path fill="#221b1b" d="M340.72 176.85a3.56 3.56 0 0 1 2.53 2.09.64.64 0 0 1-.27.71.61.61 0 0 1-.74.08c-.7-.51-1.39-1-2.07-1.58a.64.64 0 0 1-.2-.73.86.86 0 0 1 .75-.57Z"/><path fill="#f08605" d="M443.17 295.33a2.64 2.64 0 0 0-4.22 0 4.51 4.51 0 0 0 0 5.79 2.69 2.69 0 0 0 4.36-.15 4.49 4.49 0 0 0-.14-5.64ZM440 301a.53.53 0 0 1-.36-.13 4 4 0 0 1-1-2.59 3.38 3.38 0 0 1 .43-1.56c.15-.32.65-.56.8-.41s0 .53-.06.73a2.82 2.82 0 0 0 0 2.73 3.06 3.06 0 0 1 .35.73c.04.12-.1.32-.16.5Z"/><path fill="#030202" d="M60.54 205.08a16.84 16.84 0 0 0-1.47-4.43 4.35 4.35 0 0 0-2.37-2.43 8.31 8.31 0 0 0-5.39-.36c-2 .6-3.92 1.1-5.93 1.51a21.73 21.73 0 0 0-3.93 1 6.27 6.27 0 0 0-3.11 2.52c-1.6 2.58-1 5 1.61 6.55a13.43 13.43 0 0 1 3.46 2.81 13.54 13.54 0 0 0 1.75 1.75 8.29 8.29 0 0 0 9.35 1.08 11.67 11.67 0 0 0 5.56-6 7.7 7.7 0 0 0 .58-2.91c-.03-.28-.06-.68-.11-1.09Zm-1.81 3.3a10 10 0 0 1-5.55 5.67 8.57 8.57 0 0 1-2.48.51 7.42 7.42 0 0 1-4.6-1.7 13 13 0 0 1-1.46-1.42 12.88 12.88 0 0 0-4.1-3.31c-1.49-.71-2-1.94-1.25-3.78a4.37 4.37 0 0 1 3-2.62c1.63-.48 3.28-.9 4.94-1.23a26.68 26.68 0 0 0 3.55-.88 9.36 9.36 0 0 1 3-.42 4.46 4.46 0 0 1 4.2 2.72 26.66 26.66 0 0 1 1 2.68 5 5 0 0 1-.25 3.78Z"/><path fill="#0a0707" d="M59.4 222.26a27.58 27.58 0 0 0-3.64.41 8.26 8.26 0 0 0-2.86 1 2.37 2.37 0 0 0-1.31 2.33 2.22 2.22 0 0 0 1.81 2 8.07 8.07 0 0 0 2 .29 6.22 6.22 0 0 0 5.5-3.86c.47-1.27-.18-2.25-1.5-2.17Zm-.15 2.05a4.53 4.53 0 0 1-5.52 2.21 1 1 0 0 1-.55-.53.71.71 0 0 1 .32-.88 7.07 7.07 0 0 1 1.64-.79 10.71 10.71 0 0 1 3.19-.58h.6a.38.38 0 0 1 .32.57Z"/></g></svg>